<svg xmlns="http://www.w3.org/2000/svg" xmlns:xlink="http://www.w3.org/1999/xlink" width="1050" zoomAndPan="magnify" viewBox="0 0 787.5 149.999998" height="200" preserveAspectRatio="xMidYMid meet" version="1.0"><defs><g/><clipPath id="0008737736"><path d="M 20.25 11.75 L 149.183594 11.75 L 149.183594 132 L 20.25 132 Z M 20.25 11.75 " clip-rule="nonzero"/></clipPath><clipPath id="f8de901512"><path d="M 15 9.390625 L 126 9.390625 L 126 135 L 15 135 Z M 15 9.390625 " clip-rule="nonzero"/></clipPath><clipPath id="2be7ce4c82"><path d="M 18.359375 127.765625 L 142 127.765625 L 142 140.640625 L 18.359375 140.640625 Z M 18.359375 127.765625 " clip-rule="nonzero"/></clipPath></defs><g clip-path="url(#0008737736)"><path fill="#247ba0" d="M 118.539062 131.710938 L 118.636719 131.621094 C 119.046875 131.25 121.550781 128.855469 121.914062 129.09375 C 127.117188 126.027344 137.667969 114.773438 139.367188 109.40625 C 141.183594 103.675781 146.179688 101.257812 148.480469 89.984375 C 148.589844 89.457031 148.675781 89.84375 148.675781 88.742188 C 148.046875 87.988281 141.871094 88.386719 141.21875 87.910156 C 141.1875 87.886719 135.410156 87.863281 134.535156 87.714844 C 133.582031 87.554688 132.691406 87.835938 131.289062 87.539062 C 131.042969 87.488281 127.695312 87.457031 126.890625 87.359375 C 125.839844 87.226562 124.363281 86.941406 123.308594 86.941406 C 123.710938 86.679688 126.023438 86.765625 126.863281 86.59375 C 128.296875 86.304688 132.316406 86.511719 133.453125 86.011719 C 133.472656 86 138.058594 85.960938 139.121094 85.652344 C 142.414062 84.691406 146.671875 86.074219 148.140625 84.195312 C 148.433594 83.820312 148.789062 83.789062 148.8125 83.066406 C 148.835938 82.363281 148.84375 81.664062 149.023438 80.929688 C 149.25 80.007812 149.171875 73.761719 149.171875 72.25 C 149.085938 71.949219 147.734375 62.828125 147.734375 62.433594 C 147.734375 62.328125 147.589844 61.472656 147.402344 60.492188 C 146.96875 58.253906 146.257812 58.132812 145.714844 57.972656 C 145.289062 57.847656 145.253906 57.476562 143.707031 57.507812 C 140.851562 57.5625 136.898438 57.484375 136.304688 57.257812 C 135.265625 56.855469 128.199219 57.292969 127.039062 56.898438 C 126.84375 56.828125 122.558594 56.605469 121.640625 56.570312 C 124.097656 56.121094 125.324219 56.277344 126.167969 56.042969 C 126.230469 56.027344 127.894531 56.027344 129.46875 55.886719 C 131.210938 55.738281 132.898438 55.441406 133.285156 55.425781 C 135.222656 55.34375 137.433594 55.296875 137.976562 55.066406 C 138.832031 54.699219 144.789062 55.523438 145.574219 55.085938 C 145.039062 53.371094 144.792969 54.140625 144.449219 52.199219 C 144.023438 49.816406 141.882812 48.289062 141.199219 45.257812 C 141.042969 44.566406 140.550781 44.066406 140.535156 43.765625 C 139.113281 43.007812 139.34375 41.09375 138.039062 39.8125 C 136.292969 38.097656 132.179688 30.664062 129.792969 29.871094 C 129.320312 28.625 125.910156 26.746094 123.164062 25.238281 C 121.8125 24.496094 121.207031 23.664062 120.609375 23.21875 C 119.933594 22.722656 118.628906 21.976562 117.898438 21.503906 C 117.425781 21.195312 116.976562 20.808594 115.195312 20.789062 C 108.757812 20.722656 93.984375 21.125 91.777344 21.125 C 94.058594 20.644531 103.257812 19.570312 106.144531 19.164062 C 108.832031 18.78125 112.144531 18.429688 112.558594 18.429688 C 112.621094 18.453125 108.226562 16.191406 106.246094 15.648438 C 105.058594 15.324219 103.261719 14.675781 101.417969 14.117188 C 98.929688 13.355469 96.308594 12.890625 94.925781 12.945312 C 94.589844 12.957031 91.4375 12.441406 90.160156 12.496094 C 87.203125 12.625 84.472656 11.804688 81.828125 11.9375 C 79.347656 12.0625 76.960938 13.144531 74.214844 13.300781 C 73.121094 13.359375 70.292969 14.261719 69.109375 14.382812 C 65.53125 15.738281 62.707031 14.925781 58.449219 18.757812 C 57.9375 19.222656 51.265625 21.71875 48.148438 24.464844 C 46.148438 26.222656 41.761719 28.527344 40.277344 30.753906 C 39.136719 32.46875 36.40625 33.464844 34.414062 36.636719 C 34.367188 36.714844 33.871094 37.234375 33.21875 37.9375 C 32.296875 38.921875 31.503906 40.246094 31.292969 41.589844 C 31.160156 42.40625 30.75 43.320312 33.503906 43.449219 C 34.652344 43.5 36.320312 43.902344 37.539062 43.902344 C 39.574219 43.902344 41.898438 44.351562 44.074219 44.351562 C 46.710938 44.351562 49.679688 44.527344 52.300781 44.527344 C 52.683594 44.527344 53.414062 44.730469 53.90625 44.730469 C 53.65625 44.71875 53.351562 44.921875 52.625 45.058594 C 51.40625 45.28125 46.742188 45.65625 45.492188 45.65625 C 44.734375 45.65625 40.578125 45.722656 40.050781 45.957031 C 39.226562 46.328125 33.328125 45.914062 31.472656 46.402344 C 31.0625 46.511719 28.992188 46.730469 28.539062 46.730469 C 27.964844 46.90625 25.660156 50.746094 25.570312 51.886719 C 25.519531 52.570312 23.703125 56.378906 23.410156 57.511719 C 22.664062 59.117188 20.710938 68.4375 20.710938 70.046875 C 20.605469 70.578125 20.65625 70.65625 21.140625 70.65625 C 22.066406 70.65625 22.589844 70.714844 23.472656 70.769531 C 23.472656 70.769531 23.539062 70.765625 23.546875 70.765625 C 24.253906 70.765625 24.476562 70.777344 25.152344 70.851562 C 26.183594 70.964844 26.644531 71.082031 27.765625 71.082031 C 29.496094 71.082031 31.203125 71.164062 32.929688 71.195312 C 33.890625 71.210938 35.09375 71.507812 35.847656 71.507812 C 38.359375 71.339844 45.421875 70.917969 47.609375 71.351562 C 49.046875 71.636719 58.582031 72.566406 59.394531 72.09375 C 57.960938 73.882812 35.789062 72.332031 33.425781 73.464844 C 32.171875 74.066406 26.507812 74.164062 24.316406 74.527344 C 23.765625 74.617188 21.210938 74.363281 20.800781 74.699219 C 20.800781 76.449219 20.667969 78.109375 20.667969 79.960938 C 20.667969 80.449219 21.027344 80.667969 21.027344 82.070312 C 21.027344 83.28125 21.4375 84.207031 21.386719 85.742188 C 21.378906 85.980469 21.597656 87.007812 21.746094 87.191406 C 22.054688 87.359375 21.792969 88.886719 21.792969 89.320312 C 21.792969 91.160156 23.890625 95.59375 23.859375 95.949219 C 25.195312 96.058594 26.195312 96.839844 28.054688 96.804688 C 28.640625 96.792969 30.488281 97.074219 31.523438 97.074219 C 33.101562 97.074219 38.792969 96.910156 39.828125 97.027344 C 38.308594 98.476562 32.800781 98.085938 30.105469 98.667969 C 28.785156 98.949219 26.171875 99.230469 24.808594 99.230469 C 28.113281 109.960938 32.027344 109.59375 34.046875 114.320312 C 34.730469 115.929688 39.945312 122.613281 41.359375 123.578125 C 42.589844 125.113281 49.894531 130.796875 52.042969 131.710938 L 118.539062 131.710938 " fill-opacity="1" fill-rule="evenodd"/></g><g clip-path="url(#f8de901512)"><path fill="#e8f1f2" d="M 99.015625 41.082031 C 98.882812 41.683594 98.699219 42.28125 98.46875 42.851562 C 98.746094 42.820312 99.023438 42.796875 99.304688 42.792969 C 99.359375 42.46875 99.40625 42.144531 99.445312 41.820312 C 99.484375 41.5 99.503906 41.1875 99.515625 40.878906 C 99.347656 40.945312 99.183594 41.015625 99.015625 41.082031 Z M 91.753906 26.105469 C 93.800781 27.171875 95.675781 28.277344 97.464844 29.480469 C 98.019531 28.914062 98.867188 28.652344 99.648438 28.765625 C 100.414062 28.378906 101.171875 28.300781 102.082031 28.644531 C 102.832031 28.515625 103.425781 28.613281 103.984375 29.082031 C 104.480469 29.144531 104.886719 29.253906 105.269531 29.484375 C 105.578125 28.96875 106.027344 28.5625 106.683594 28.398438 C 107.300781 28.246094 107.945312 28.351562 108.480469 28.636719 C 108.738281 28.59375 109 28.59375 109.25 28.640625 C 109.683594 28.722656 110.105469 28.9375 110.457031 29.230469 C 111.023438 29.335938 111.570312 29.632812 111.964844 30.078125 C 112.390625 30.210938 112.78125 30.441406 113.109375 30.785156 C 113.464844 31.152344 113.691406 31.5625 113.828125 32 C 114.457031 32.0625 115.082031 32.113281 115.710938 32.15625 C 116.027344 32.175781 116.339844 32.199219 116.65625 32.253906 C 118.023438 32.484375 119.132812 33.328125 119.136719 34.824219 C 119.136719 34.949219 119.132812 35.070312 119.128906 35.195312 C 119.109375 35.570312 119.070312 35.941406 119.019531 36.3125 C 118.792969 37.9375 117.808594 38.789062 116.132812 38.6875 C 115.261719 38.640625 114.394531 38.574219 113.523438 38.503906 C 113.402344 38.847656 113.242188 39.175781 113.023438 39.496094 C 112.878906 40.097656 113.128906 41.886719 113.210938 42.457031 C 113.507812 44.523438 113.628906 46.847656 112.996094 48.867188 C 112.535156 50.332031 111.691406 51.539062 110.378906 52.355469 C 109.292969 53.03125 108.074219 53.585938 106.855469 53.96875 L 106.683594 54.019531 C 105.40625 55.25 103.78125 55.96875 102.089844 56.445312 C 101.378906 56.648438 100.667969 56.804688 99.9375 56.925781 C 99.492188 57 99.039062 57.050781 98.597656 57.148438 C 98.425781 57.179688 98.253906 57.226562 98.085938 57.285156 C 97.535156 57.472656 96.914062 57.878906 96.433594 58.199219 C 96.300781 58.285156 96.164062 58.382812 96.019531 58.480469 C 95.9375 59.066406 95.722656 59.679688 95.410156 60.210938 C 95.507812 61.035156 95.355469 61.984375 95.023438 62.78125 C 95.546875 63.570312 95.851562 64.460938 96.09375 65.375 C 96.160156 65.628906 96.222656 65.90625 96.289062 66.183594 C 97.765625 66.070312 99.367188 66.898438 100.277344 68.0625 C 104.875 66.515625 109.433594 64.882812 113.933594 63.152344 C 114.738281 62.84375 115.554688 62.613281 116.40625 62.917969 C 117.246094 63.21875 117.746094 63.910156 118.035156 64.71875 L 118.40625 65.773438 C 119.011719 67.484375 118.316406 68.761719 116.640625 69.359375 C 111.675781 71.136719 106.691406 72.867188 101.683594 74.53125 C 103.863281 76.292969 106.113281 77.945312 108.367188 79.613281 C 108.949219 80.042969 109.523438 80.570312 110.066406 81.050781 C 110.859375 81.761719 111.644531 82.492188 112.425781 83.222656 C 113.210938 83.964844 113.992188 84.714844 114.757812 85.476562 C 115.273438 85.992188 115.863281 86.5625 116.308594 87.132812 C 116.605469 87.515625 116.917969 87.890625 117.226562 88.261719 C 117.480469 88.566406 117.765625 88.933594 118.046875 89.226562 C 120.699219 91.058594 122.421875 96.601562 122.417969 99.613281 C 122.441406 99.773438 122.597656 100.105469 122.664062 100.257812 C 122.878906 100.738281 123.09375 101.210938 123.257812 101.707031 C 123.777344 103.273438 123.710938 104.769531 122.917969 106.242188 C 122.699219 106.644531 122.570312 106.988281 122.40625 107.40625 C 122.105469 108.171875 121.667969 108.789062 121.15625 109.421875 C 120.878906 110.007812 120.769531 110.4375 120.148438 110.871094 C 120.140625 110.871094 120.136719 110.878906 120.132812 110.878906 C 120.132812 111.1875 120.074219 111.507812 119.941406 111.828125 C 119.6875 112.429688 119.253906 113.089844 118.851562 113.601562 C 118.601562 113.914062 118.464844 114.183594 118.367188 114.574219 C 118.097656 115.609375 117.949219 116.675781 117.105469 117.4375 C 116.746094 117.761719 116.339844 117.957031 115.902344 118.058594 C 115.21875 119.394531 114.664062 120.503906 114.664062 122.207031 C 114.664062 122.550781 114.683594 122.839844 114.925781 123.09375 C 115.378906 123.570312 115.917969 123.894531 116.394531 124.429688 C 116.898438 125.003906 118.167969 126.011719 118.835938 126.390625 C 120.101562 127.109375 120.527344 127.171875 121.925781 127.503906 C 122.785156 127.710938 123.605469 127.933594 124.25 128.582031 C 125.191406 129.523438 125.21875 130.808594 124.984375 132.023438 C 125.289062 133.363281 124.460938 133.960938 123.28125 134.425781 C 122.027344 134.917969 119.722656 134.828125 118.324219 134.882812 C 117.203125 134.929688 116.105469 134.9375 114.988281 134.773438 C 113.34375 134.53125 112.078125 133.796875 110.789062 132.804688 C 110.707031 132.738281 110.59375 132.648438 110.464844 132.542969 C 110.117188 133.050781 109.535156 133.363281 108.828125 133.332031 L 105.855469 133.332031 L 105.769531 133.324219 C 103.550781 133.082031 103.011719 131 103.289062 129.152344 C 103.332031 128.867188 103.421875 128.605469 103.546875 128.378906 C 103.445312 126.835938 103.675781 125.578125 104.351562 124.027344 C 104.941406 122.671875 105.605469 121.214844 105.847656 119.746094 C 106 118.832031 106.101562 117.480469 106.082031 116.472656 C 104.402344 116.894531 102.71875 116.976562 101.03125 117.359375 C 100.511719 117.476562 100.125 117.640625 99.648438 117.871094 C 98.257812 118.546875 97.171875 118.785156 95.621094 118.929688 C 93.347656 119.144531 89.804688 119.574219 88.191406 117.632812 C 87.710938 117.054688 87.25 116.445312 86.847656 115.808594 C 86.496094 115.25 86.070312 114.234375 85.640625 113 C 84.714844 115.664062 83.457031 119.519531 80.804688 120.972656 C 78.683594 122.132812 75.035156 120.765625 73.03125 119.820312 C 71.324219 119.019531 69.128906 117.726562 67.945312 116.238281 C 67.859375 116.132812 67.769531 116.035156 67.671875 115.945312 C 66.878906 115.21875 65.300781 114.671875 64.308594 114.234375 C 62.832031 113.585938 61.546875 112.863281 60.367188 111.886719 L 59.167969 113.3125 C 58.683594 114.648438 57.300781 115.535156 56.21875 116.367188 C 55.761719 116.722656 55.242188 117.257812 54.820312 117.664062 C 54.441406 118.03125 53.917969 118.507812 53.570312 118.921875 C 52.960938 120.132812 52.558594 121.421875 51.796875 122.570312 C 51.367188 123.222656 51.308594 124.023438 51.15625 124.765625 C 51.003906 125.511719 50.59375 126.238281 50.15625 126.878906 C 50.164062 127.171875 50.203125 127.53125 50.214844 127.785156 C 50.253906 128.5 50.253906 129.214844 50.140625 129.925781 C 49.703125 132.734375 47.707031 134.113281 44.886719 134.113281 C 42.625 134.113281 39.695312 132.605469 39.695312 130.054688 C 39.695312 127.960938 41.230469 124.941406 42.011719 122.957031 C 42.558594 121.558594 43.300781 120.128906 44 118.796875 C 44.683594 117.496094 45.40625 116.15625 46.195312 114.910156 C 46.417969 114.554688 46.632812 114.1875 46.828125 113.816406 C 47.046875 113.394531 47.480469 112.503906 47.757812 111.808594 C 47.710938 111.742188 47.667969 111.671875 47.628906 111.597656 C 46.550781 109.609375 48.648438 107.308594 49.667969 105.761719 C 49.90625 105.398438 50.105469 105.035156 50.273438 104.65625 C 49.179688 104.121094 48.078125 103.582031 47.070312 102.925781 C 46.019531 102.242188 45.101562 101.21875 45.472656 99.867188 C 45.773438 98.78125 46.734375 98.289062 47.730469 97.996094 C 47.992188 97.917969 48.328125 97.851562 48.574219 97.75 C 49.84375 97.238281 51.066406 96.585938 52.292969 95.96875 C 53.003906 95.609375 53.710938 95.058594 54.355469 94.589844 C 55.308594 93.894531 56.261719 93.257812 57.328125 92.75 C 57.882812 92.488281 58.535156 91.820312 58.957031 91.382812 C 59.773438 90.539062 60.546875 89.667969 61.40625 88.867188 C 62.726562 87.636719 64.472656 86.75 65.609375 85.363281 C 65.699219 85.261719 65.785156 85.15625 65.871094 85.054688 C 62.625 85.835938 59.371094 86.5625 56.109375 87.210938 C 52.988281 87.835938 49.851562 88.394531 46.703125 88.828125 C 44.117188 89.183594 41.484375 89.472656 38.875 89.558594 C 38.128906 89.582031 37.394531 89.265625 36.824219 88.800781 C 36.09375 88.210938 35.566406 87.320312 35.648438 86.359375 C 35.773438 84.878906 37.101562 84.179688 38.417969 83.960938 C 50.4375 81.960938 62.496094 79.109375 74.273438 75.902344 L 74.4375 75.6875 C 74.769531 74.53125 74.820312 73.28125 74.847656 72.085938 C 74.875 70.792969 74.847656 69.296875 75.277344 68.070312 C 75.488281 67.457031 75.839844 66.960938 76.304688 66.605469 C 76.191406 66.164062 76.066406 65.722656 75.933594 65.285156 C 75.007812 62.210938 74.199219 59.816406 74.746094 56.582031 C 74.109375 52.929688 74.929688 49.4375 77.753906 46.882812 C 78.921875 45.824219 80.34375 45.152344 81.734375 44.457031 C 82.300781 44.171875 83.59375 43.441406 84.347656 42.867188 C 84.277344 42.496094 84.222656 42.109375 84.183594 41.726562 C 81.929688 41.144531 79.683594 40.289062 77.46875 39.199219 L 75.535156 38.242188 L 77.007812 36.671875 C 77.960938 35.652344 78.984375 34.65625 80.058594 33.691406 C 71.367188 32.105469 62.707031 30.316406 54.117188 28.265625 C 49.664062 27.199219 45.230469 26.03125 40.839844 24.730469 C 36.914062 23.570312 32.996094 22.308594 29.171875 20.855469 C 26.265625 19.753906 23.214844 18.496094 20.523438 16.933594 C 18.898438 15.992188 16.601562 14.484375 16.027344 12.589844 L 15.054688 9.390625 L 18.15625 10.644531 C 23.929688 12.972656 29.886719 14.964844 35.839844 16.785156 C 42.636719 18.863281 49.511719 20.722656 56.414062 22.414062 C 66.3125 24.835938 76.445312 26.992188 86.554688 28.558594 C 87.757812 27.714844 88.96875 26.914062 90.164062 26.167969 L 90.941406 25.683594 L 91.753906 26.105469 " fill-opacity="1" fill-rule="evenodd"/></g><path fill="#13293d" d="M 17.558594 12.125 C 36.800781 19.890625 68.542969 27.734375 90.710938 30.777344 L 91.066406 28.730469 L 92.425781 28.964844 L 92.097656 30.855469 C 95.59375 31.339844 110.875 33.4375 115.605469 33.75 C 116.320312 33.796875 117.535156 33.851562 117.535156 34.828125 C 117.535156 34.921875 117.535156 35.019531 117.53125 35.117188 C 117.511719 35.472656 117.46875 35.839844 117.433594 36.089844 C 117.335938 36.804688 117.136719 37.148438 116.226562 37.09375 C 108.808594 36.65625 98.832031 35.140625 91.535156 34.117188 L 91.136719 36.429688 L 89.777344 36.195312 L 90.183594 33.828125 C 78.300781 31.859375 66.199219 29.507812 54.488281 26.710938 C 36.464844 22.40625 18.820312 16.28125 17.558594 12.125 " fill-opacity="1" fill-rule="evenodd"/><path fill="#13293d" d="M 116.527344 65.253906 L 116.898438 66.304688 C 117.199219 67.148438 116.976562 67.542969 116.101562 67.855469 C 103.289062 72.445312 90.078125 76.777344 77.007812 80.472656 C 62.5 84.574219 47.675781 87.667969 38.824219 87.960938 C 37.753906 87.996094 35.945312 85.992188 38.679688 85.539062 C 61.746094 81.699219 92.730469 73.015625 114.507812 64.644531 C 115.5 64.265625 116.132812 64.140625 116.527344 65.253906 " fill-opacity="1" fill-rule="evenodd"/><path fill="#13293d" d="M 94.8125 33.378906 C 98.710938 35.410156 98.441406 41.980469 95.03125 45.222656 C 95.65625 45.222656 98.480469 44.152344 99.996094 44.4375 C 100.019531 45.375 99.863281 46.320312 99.65625 47.152344 C 100.445312 45.480469 100.820312 43.722656 101.035156 42.015625 C 101.199219 40.683594 100.988281 39.539062 101.257812 38.128906 C 100.207031 37.871094 97.882812 37.363281 97.757812 35.253906 C 97.820312 35.148438 97.996094 34.289062 97.992188 34.179688 C 97.980469 33.875 98.058594 31.707031 98.492188 30.761719 C 98.671875 30.367188 99.480469 30.144531 99.800781 30.546875 C 100.464844 30.066406 100.871094 29.835938 101.699219 30.214844 C 102.265625 30.472656 102.566406 29.796875 103.160156 30.523438 C 103.40625 30.832031 104.105469 30.335938 104.855469 31.242188 C 105.019531 31.4375 105.199219 32.449219 105.199219 32.714844 C 105.398438 33.019531 105.503906 33.957031 105.503906 34.882812 C 105.617188 33.765625 106.050781 32.726562 106.238281 31.589844 C 106.363281 30.871094 106.582031 30.070312 107.066406 29.949219 C 107.683594 29.796875 108.144531 30.296875 108.074219 30.628906 C 108.136719 30.515625 108.53125 30.132812 108.953125 30.214844 C 109.425781 30.300781 109.75 30.765625 109.683594 30.933594 C 109.90625 30.652344 110.867188 30.816406 110.945312 31.523438 C 112.957031 31.503906 112.371094 34.226562 112.316406 35.617188 C 112.277344 36.601562 112.277344 37.847656 111.621094 38.703125 C 111.226562 39.382812 111.394531 41.09375 111.625 42.683594 C 111.984375 45.152344 111.90625 46.996094 111.46875 48.386719 C 111.09375 49.585938 110.445312 50.429688 109.535156 50.996094 C 108.625 51.566406 107.515625 52.085938 106.375 52.441406 C 106.570312 51.078125 106.449219 49.835938 106.449219 49.835938 C 106.390625 51.027344 106.113281 52.339844 105.609375 52.832031 C 104.542969 53.875 103.132812 54.488281 101.65625 54.910156 C 99.601562 55.492188 98.707031 55.382812 97.566406 55.769531 C 95.980469 56.308594 93.96875 58.171875 92.878906 58.476562 C 93.1875 58.527344 94.007812 58.394531 94.449219 58.148438 C 94.421875 58.433594 94.246094 59.304688 93.667969 59.875 C 94.019531 60.402344 93.777344 62.410156 93.046875 62.925781 C 94.585938 64.242188 94.582031 66.773438 95.292969 68.421875 C 96.058594 67.128906 98.449219 67.949219 99.230469 69.367188 C 100.3125 71.335938 99.671875 72.25 100.191406 75.378906 C 102.539062 77.308594 104.542969 78.769531 107.414062 80.898438 C 108.675781 81.828125 114.117188 86.929688 115.046875 88.117188 C 115.375 88.539062 116.757812 90.222656 117.027344 90.46875 C 119.164062 91.792969 120.820312 96.960938 120.820312 99.648438 C 120.820312 100.910156 122.90625 102.894531 121.507812 105.480469 C 120.71875 106.941406 121.167969 106.859375 119.839844 108.511719 C 119.664062 108.726562 119.550781 109.335938 119.234375 109.554688 C 118.226562 110.253906 116.535156 110.511719 116.53125 110.511719 C 117.484375 110.449219 117.835938 110.453125 118.035156 110.464844 C 118.496094 110.496094 118.632812 110.796875 118.460938 111.21875 C 118.242188 111.746094 117.765625 112.390625 117.59375 112.609375 C 117.320312 112.957031 117.011719 113.414062 116.816406 114.175781 C 116.441406 115.621094 116.390625 116.671875 114.878906 116.53125 C 114.085938 118.148438 113.0625 119.683594 113.0625 122.207031 C 113.0625 124.230469 114.226562 124.390625 115.191406 125.484375 C 115.796875 126.175781 117.3125 127.367188 118.046875 127.78125 C 119.585938 128.652344 119.914062 128.667969 121.554688 129.058594 C 122.949219 129.394531 123.902344 129.667969 123.351562 132.007812 C 123.378906 132.570312 123.792969 132.507812 122.695312 132.941406 C 121.828125 133.28125 119.398438 133.238281 118.257812 133.285156 C 117.253906 133.328125 116.265625 133.34375 115.222656 133.191406 C 112.300781 132.757812 110.933594 130.28125 109.207031 129.984375 C 109.207031 129.996094 109.207031 130.855469 109.207031 131.371094 C 109.207031 131.601562 109.140625 131.753906 108.871094 131.730469 L 105.941406 131.730469 C 104.6875 131.597656 104.761719 130.136719 104.871094 129.390625 C 104.933594 128.988281 105.09375 129.09375 105.222656 129.058594 C 105 127.359375 105.132812 126.242188 105.816406 124.667969 C 106.460938 123.1875 107.160156 121.632812 107.429688 120.007812 C 107.566406 119.160156 107.722656 117.164062 107.667969 116.089844 C 107.613281 115 106.699219 114.664062 105.746094 114.90625 C 103.871094 115.390625 102.84375 115.308594 100.675781 115.800781 C 98.636719 116.265625 98.75 117.03125 95.472656 117.339844 C 93.214844 117.550781 90.425781 117.820312 89.421875 116.613281 C 89.054688 116.171875 88.597656 115.578125 88.203125 114.957031 C 86.859375 112.832031 84.847656 104.609375 84.945312 102.886719 C 84.679688 104.101562 84.949219 107.078125 85.410156 109.394531 C 83.714844 112.628906 83.785156 114.640625 82.148438 117.246094 C 81.367188 118.484375 80.699219 119.207031 80.035156 119.570312 C 77.925781 120.726562 71.121094 117.660156 69.195312 115.242188 C 67.414062 113 63.640625 113.21875 60.234375 109.566406 L 57.722656 112.542969 C 57.558594 113.496094 56.210938 114.359375 55.242188 115.101562 C 54.753906 115.476562 52.351562 117.796875 52.207031 118.074219 C 51.710938 119.039062 51.121094 120.695312 50.460938 121.691406 C 49.847656 122.617188 49.796875 123.417969 49.589844 124.449219 C 49.507812 124.847656 49.253906 125.394531 48.640625 126.257812 C 48.167969 126.917969 50.171875 132.515625 44.886719 132.515625 C 43.402344 132.515625 41.296875 131.542969 41.296875 130.054688 C 41.296875 128.449219 42.558594 125.933594 43.5 123.539062 C 44.242188 121.652344 46.421875 117.546875 47.546875 115.765625 C 47.789062 115.382812 48.03125 114.960938 48.246094 114.550781 C 48.53125 114.007812 49.808594 111.304688 49.53125 111.214844 C 47.765625 110.640625 50.464844 107.457031 51.003906 106.640625 C 51.519531 105.863281 51.863281 105.121094 52.292969 103.882812 C 50.707031 103.058594 49.164062 102.378906 47.945312 101.585938 C 47.0625 101.015625 46.929688 100.609375 47.015625 100.289062 C 47.199219 99.632812 48.542969 99.488281 49.175781 99.234375 C 50.441406 98.71875 51.703125 98.054688 53.011719 97.398438 C 54.503906 96.644531 55.945312 95.171875 58.011719 94.199219 C 59.394531 93.546875 60.722656 91.691406 62.5 90.035156 C 63.816406 88.808594 65.558594 87.953125 66.847656 86.378906 C 69.226562 83.488281 73.855469 79.230469 75.886719 76.414062 C 76.8125 73.566406 76.152344 70.417969 76.785156 68.59375 C 77.03125 67.894531 77.542969 67.617188 78.136719 67.574219 C 77.5625 63.953125 75.535156 60.925781 76.375 56.578125 C 75.699219 53.160156 76.472656 50.199219 78.828125 48.066406 C 79.839844 47.152344 81.164062 46.53125 82.453125 45.886719 C 83.855469 45.183594 85.703125 43.980469 86.113281 43.375 C 85.925781 42.773438 85.457031 41.273438 85.453125 39.820312 C 85.144531 39.214844 85.164062 37.792969 85.433594 37.152344 C 85.566406 36.828125 85.863281 36.738281 86.121094 36.808594 C 86.480469 35.609375 87.105469 34.539062 88.144531 33.882812 C 88.972656 33.359375 90.039062 33.0625 91.394531 33.0625 C 91.351562 31.417969 91.433594 29.949219 93.164062 31.308594 C 93.707031 31.734375 94.941406 30.265625 95.230469 31.738281 C 95.34375 32.3125 95.191406 32.925781 94.8125 33.378906 Z M 106.285156 43.429688 C 105.992188 41.703125 105.566406 39.789062 105.347656 38.414062 C 105.203125 37.53125 105.261719 36.800781 105.273438 36.78125 C 105.375 36.527344 105.445312 36.109375 105.476562 35.628906 C 105.488281 35.933594 105.53125 36.246094 105.613281 36.570312 C 105.910156 37.714844 107.234375 37.597656 107.75 38.867188 C 107.730469 41.097656 107.527344 42.414062 106.285156 43.429688 " fill-opacity="1" fill-rule="evenodd"/><path fill="#13293d" d="M 78.175781 37.761719 C 87.042969 42.132812 96.023438 42.152344 103.742188 36.59375 C 99.503906 32.582031 95.808594 30.019531 91.011719 27.523438 C 86.539062 30.3125 81.707031 33.996094 78.175781 37.761719 " fill-opacity="1" fill-rule="evenodd"/><g clip-path="url(#2be7ce4c82)"><path fill="#13293d" d="M 18.398438 136.816406 C 24.667969 135.351562 38.058594 131.0625 45.097656 130.140625 C 46.964844 129.898438 52.179688 129.375 56.617188 128.855469 C 61.785156 128.25 66.488281 127.949219 71.710938 127.910156 C 78.636719 127.859375 86.578125 128.433594 93.503906 128.554688 C 103.300781 128.726562 114.003906 129.597656 122.6875 130.792969 C 128.636719 131.613281 136.535156 133.394531 141.753906 135.167969 C 141.792969 135.261719 135.582031 134.265625 129.769531 134.140625 C 126.742188 134.074219 116.320312 132.933594 118.613281 135.554688 C 119.8125 136.925781 121.527344 138.691406 118.75 138.382812 C 109.800781 137.386719 110.703125 135.882812 103.585938 134.207031 C 98.953125 133.117188 92.550781 132.070312 98.039062 135.769531 C 100.085938 137.148438 95.839844 140.210938 88.472656 136.398438 C 86.378906 135.316406 75.636719 132.398438 79.488281 135.863281 C 81.117188 137.324219 77.253906 140.339844 73.832031 136.425781 C 71.894531 134.207031 68.148438 134.539062 65.339844 134.421875 C 63.101562 134.328125 60.945312 134.714844 58.859375 135.1875 C 55.535156 135.941406 53.757812 138.554688 49.984375 139.664062 C 46.992188 140.546875 44.3125 141.234375 43.265625 139.886719 C 42.660156 139.113281 40.90625 136.933594 44.3125 135.589844 C 46.242188 134.832031 43.535156 134.46875 42.605469 134.523438 C 39.957031 134.683594 36.058594 135.058594 32.660156 135.414062 C 27.914062 135.910156 23.074219 136.714844 18.398438 136.816406 " fill-opacity="1" fill-rule="evenodd"/></g><g fill="#e8f1f2" fill-opacity="1"><g transform="translate(172.229626, 115.793903)"><g><path d="M 17.015625 -83.65625 L 37.578125 -50.328125 L 58.375 -83.65625 L 76.09375 -83.65625 L 44.65625 -35.796875 L 44.65625 0 L 29.78125 0 L 29.78125 -35.796875 L -1.65625 -83.65625 Z M 17.015625 -83.65625 "/></g></g></g><g fill="#e8f1f2" fill-opacity="1"><g transform="translate(246.666735, 115.793903)"><g><path d="M 49.265625 -83.65625 L 85.3125 0 L 68.296875 0 L 60.5 -19.140625 L 24.21875 -19.140625 L 16.65625 0 L 0 0 L 36.390625 -83.65625 Z M 29.296875 -31.90625 L 55.296875 -31.90625 L 42.421875 -65.9375 Z M 29.296875 -31.90625 "/></g></g></g><g fill="#e8f1f2" fill-opacity="1"><g transform="translate(331.97402, 115.793903)"><g><path d="M 32.375 -83.65625 L 54.703125 -25.046875 L 77.28125 -83.65625 L 99.71875 -83.65625 L 99.71875 0 L 85.546875 0 L 85.546875 -69.46875 L 85.3125 -69.46875 L 59.90625 0 L 49.5 0 L 24.109375 -69.46875 L 23.875 -69.46875 L 23.875 0 L 9.6875 0 L 9.6875 -83.65625 Z M 32.375 -83.65625 "/></g></g></g><g fill="#e8f1f2" fill-opacity="1"><g transform="translate(441.384743, 115.793903)"><g><path d="M 49.265625 -83.65625 L 85.3125 0 L 68.296875 0 L 60.5 -19.140625 L 24.21875 -19.140625 L 16.65625 0 L 0 0 L 36.390625 -83.65625 Z M 29.296875 -31.90625 L 55.296875 -31.90625 L 42.421875 -65.9375 Z M 29.296875 -31.90625 "/></g></g></g><g fill="#e8f1f2" fill-opacity="1"><g transform="translate(526.692028, 115.793903)"><g><path d="M 67 -83.65625 L 67 -70.1875 L 41.359375 -70.1875 L 41.359375 0 L 26.46875 0 L 26.46875 -70.1875 L 0.828125 -70.1875 L 0.828125 -83.65625 Z M 67 -83.65625 "/></g></g></g><g fill="#e8f1f2" fill-opacity="1"><g transform="translate(594.512531, 115.793903)"><g><path d="M 93.578125 -41.953125 C 93.578125 -28.953125 89.378906 -18.351562 80.984375 -10.15625 C 72.597656 -1.96875 61.867188 2.125 48.796875 2.125 C 35.953125 2.125 25.414062 -1.910156 17.1875 -9.984375 C 8.957031 -18.054688 4.84375 -28.550781 4.84375 -41.46875 C 4.84375 -49.976562 6.671875 -57.597656 10.328125 -64.328125 C 13.992188 -71.066406 19.234375 -76.328125 26.046875 -80.109375 C 32.867188 -83.890625 40.726562 -85.78125 49.625 -85.78125 C 62.625 -85.78125 73.195312 -81.800781 81.34375 -73.84375 C 89.5 -65.882812 93.578125 -55.253906 93.578125 -41.953125 Z M 20.4375 -42.421875 C 20.4375 -33.359375 23.09375 -25.910156 28.40625 -20.078125 C 33.726562 -14.253906 40.644531 -11.34375 49.15625 -11.34375 C 57.582031 -11.34375 64.492188 -14.195312 69.890625 -19.90625 C 75.285156 -25.613281 77.984375 -33.117188 77.984375 -42.421875 C 77.984375 -51.003906 75.300781 -58.128906 69.9375 -63.796875 C 64.582031 -69.472656 57.613281 -72.3125 49.03125 -72.3125 C 40.914062 -72.3125 34.117188 -69.515625 28.640625 -63.921875 C 23.171875 -58.328125 20.4375 -51.160156 20.4375 -42.421875 Z M 20.4375 -42.421875 "/></g></g></g></svg>