<svg xmlns="http://www.w3.org/2000/svg" xmlns:xlink="http://www.w3.org/1999/xlink" width="500" zoomAndPan="magnify" viewBox="0 0 375 374.999991" height="500" preserveAspectRatio="xMidYMid meet" version="1.0"><defs><g/><clipPath id="8402728182"><path d="M 49 10.347656 L 337.605469 10.347656 L 337.605469 280 L 49 280 Z M 49 10.347656 " clip-rule="nonzero"/></clipPath><clipPath id="8a0cd572c4"><path d="M 37.003906 5.050781 L 284 5.050781 L 284 287 L 37.003906 287 Z M 37.003906 5.050781 " clip-rule="nonzero"/></clipPath><clipPath id="5a215ed51d"><path d="M 44.53125 271 L 321 271 L 321 299.800781 L 44.53125 299.800781 Z M 44.53125 271 " clip-rule="nonzero"/></clipPath></defs><g clip-path="url(#8402728182)"><path fill="#247ba0" d="M 268.953125 279.75 L 269.175781 279.550781 C 270.09375 278.714844 275.699219 273.332031 276.511719 273.871094 C 288.167969 266.988281 311.804688 241.710938 315.613281 229.65625 C 319.6875 216.789062 330.875 211.363281 336.03125 186.039062 C 336.277344 184.859375 336.46875 185.726562 336.46875 183.25 C 335.0625 181.558594 321.222656 182.457031 319.761719 181.382812 C 319.691406 181.332031 306.75 181.28125 304.792969 180.953125 C 302.652344 180.589844 300.660156 181.21875 297.519531 180.550781 C 296.96875 180.433594 289.464844 180.367188 287.664062 180.144531 C 285.304688 179.851562 282 179.214844 279.640625 179.214844 C 280.542969 178.621094 285.722656 178.8125 287.597656 178.433594 C 290.816406 177.777344 299.816406 178.246094 302.363281 177.121094 C 302.40625 177.101562 312.679688 177.007812 315.0625 176.3125 C 322.4375 174.152344 331.972656 177.265625 335.265625 173.042969 C 335.925781 172.195312 336.71875 172.132812 336.769531 170.503906 C 336.824219 168.929688 336.84375 167.359375 337.246094 165.707031 C 337.75 163.636719 337.578125 149.609375 337.578125 146.214844 C 337.382812 145.542969 334.355469 125.054688 334.355469 124.171875 C 334.355469 123.9375 334.03125 122.019531 333.609375 119.816406 C 332.644531 114.789062 331.054688 114.511719 329.828125 114.152344 C 328.882812 113.875 328.800781 113.039062 325.335938 113.109375 C 318.941406 113.230469 310.078125 113.0625 308.75 112.546875 C 306.425781 111.644531 290.597656 112.625 288 111.742188 C 287.5625 111.589844 277.960938 111.082031 275.90625 111.003906 C 281.40625 110 284.15625 110.347656 286.042969 109.820312 C 286.1875 109.785156 289.910156 109.789062 293.4375 109.472656 C 297.347656 109.132812 301.125 108.46875 301.988281 108.433594 C 306.328125 108.253906 311.28125 108.148438 312.496094 107.628906 C 314.414062 106.800781 327.765625 108.652344 329.515625 107.675781 C 328.316406 103.824219 327.773438 105.546875 326.996094 101.1875 C 326.046875 95.84375 321.25 92.414062 319.714844 85.597656 C 319.367188 84.046875 318.269531 82.925781 318.226562 82.25 C 315.042969 80.546875 315.558594 76.253906 312.640625 73.375 C 308.726562 69.515625 299.515625 52.828125 294.164062 51.046875 C 293.101562 48.253906 285.46875 44.03125 279.320312 40.640625 C 276.289062 38.976562 274.933594 37.105469 273.59375 36.109375 C 272.078125 34.992188 269.15625 33.320312 267.523438 32.253906 C 266.460938 31.5625 265.453125 30.695312 261.460938 30.652344 C 247.042969 30.503906 213.941406 31.402344 209 31.402344 C 214.113281 30.320312 234.722656 27.917969 241.191406 27 C 247.207031 26.140625 254.632812 25.347656 255.558594 25.347656 C 255.691406 25.402344 245.855469 20.324219 241.417969 19.109375 C 238.753906 18.382812 234.734375 16.925781 230.601562 15.664062 C 225.027344 13.957031 219.15625 12.917969 216.058594 13.035156 C 215.304688 13.066406 208.242188 11.90625 205.375 12.027344 C 198.757812 12.3125 192.632812 10.472656 186.707031 10.769531 C 181.160156 11.054688 175.804688 13.480469 169.65625 13.832031 C 167.207031 13.964844 160.871094 15.996094 158.214844 16.265625 C 150.199219 19.308594 143.878906 17.480469 134.339844 26.089844 C 133.191406 27.132812 118.242188 32.738281 111.261719 38.902344 C 106.785156 42.859375 96.957031 48.023438 93.632812 53.027344 C 91.070312 56.878906 84.957031 59.121094 80.492188 66.242188 C 80.386719 66.414062 79.277344 67.585938 77.8125 69.15625 C 75.75 71.371094 73.976562 74.34375 73.496094 77.367188 C 73.203125 79.199219 72.289062 81.25 78.457031 81.539062 C 81.027344 81.65625 84.761719 82.554688 87.496094 82.554688 C 92.054688 82.554688 97.261719 83.5625 102.132812 83.5625 C 108.042969 83.5625 114.695312 83.964844 120.566406 83.964844 C 121.417969 83.964844 123.054688 84.417969 124.15625 84.417969 C 123.605469 84.386719 122.917969 84.851562 121.289062 85.152344 C 118.5625 85.65625 108.113281 86.492188 105.308594 86.492188 C 103.613281 86.492188 94.300781 86.640625 93.125 87.171875 C 91.273438 88.003906 78.0625 87.074219 73.902344 88.167969 C 72.980469 88.414062 68.351562 88.914062 67.328125 88.914062 C 66.042969 89.304688 60.878906 97.921875 60.683594 100.488281 C 60.570312 102.023438 56.5 110.578125 55.84375 113.121094 C 54.167969 116.722656 49.796875 137.65625 49.796875 141.273438 C 49.558594 142.464844 49.671875 142.636719 50.757812 142.636719 C 52.832031 142.636719 54.003906 142.769531 55.984375 142.890625 C 55.984375 142.890625 56.128906 142.886719 56.144531 142.886719 C 57.734375 142.886719 58.234375 142.910156 59.742188 143.078125 C 62.054688 143.332031 63.085938 143.59375 65.597656 143.59375 C 69.472656 143.59375 73.300781 143.773438 77.167969 143.84375 C 79.324219 143.882812 82.019531 144.554688 83.703125 144.554688 C 89.335938 144.171875 105.152344 143.230469 110.050781 144.199219 C 113.269531 144.839844 134.632812 146.929688 136.453125 145.867188 C 133.246094 149.882812 83.574219 146.402344 78.28125 148.945312 C 75.472656 150.296875 62.78125 150.519531 57.875 151.332031 C 56.640625 151.535156 50.914062 150.960938 50 151.71875 C 49.996094 155.644531 49.699219 159.371094 49.699219 163.535156 C 49.699219 164.632812 50.503906 165.117188 50.503906 168.265625 C 50.503906 170.992188 51.425781 173.070312 51.308594 176.515625 C 51.289062 177.054688 51.78125 179.359375 52.117188 179.769531 C 52.804688 180.144531 52.214844 183.578125 52.214844 184.550781 C 52.214844 188.683594 56.917969 198.640625 56.851562 199.441406 C 59.84375 199.683594 62.082031 201.441406 66.25 201.359375 C 67.5625 201.332031 71.695312 201.964844 74.015625 201.964844 C 77.550781 201.964844 90.300781 201.59375 92.625 201.859375 C 89.214844 205.117188 76.882812 204.238281 70.839844 205.542969 C 67.886719 206.179688 62.03125 206.804688 58.96875 206.804688 C 66.375 230.90625 75.148438 230.078125 79.667969 240.695312 C 81.199219 244.3125 92.886719 259.316406 96.054688 261.488281 C 98.804688 264.929688 115.175781 277.699219 119.984375 279.75 L 268.953125 279.75 " fill-opacity="1" fill-rule="evenodd"/></g><g clip-path="url(#8a0cd572c4)"><path fill="#e8f1f2" d="M 225.21875 76.21875 C 224.914062 77.578125 224.507812 78.917969 223.996094 80.199219 C 224.613281 80.125 225.238281 80.074219 225.863281 80.0625 C 225.984375 79.339844 226.089844 78.605469 226.179688 77.878906 C 226.269531 77.164062 226.3125 76.460938 226.335938 75.765625 C 225.960938 75.917969 225.589844 76.070312 225.21875 76.21875 Z M 208.945312 42.589844 C 213.53125 44.984375 217.738281 47.46875 221.738281 50.167969 C 222.984375 48.898438 224.882812 48.308594 226.632812 48.5625 C 228.351562 47.695312 230.042969 47.515625 232.085938 48.289062 C 233.769531 48.003906 235.101562 48.222656 236.34375 49.277344 C 237.457031 49.410156 238.371094 49.660156 239.226562 50.179688 C 239.921875 49.023438 240.921875 48.105469 242.394531 47.738281 C 243.777344 47.394531 245.222656 47.636719 246.417969 48.277344 C 246.996094 48.183594 247.582031 48.183594 248.144531 48.285156 C 249.109375 48.46875 250.0625 48.949219 250.847656 49.609375 C 252.121094 49.839844 253.34375 50.511719 254.226562 51.507812 C 255.179688 51.808594 256.058594 52.332031 256.792969 53.097656 C 257.585938 53.921875 258.089844 54.84375 258.398438 55.828125 C 259.808594 55.964844 261.214844 56.085938 262.613281 56.175781 C 263.328125 56.226562 264.03125 56.273438 264.734375 56.394531 C 267.800781 56.914062 270.285156 58.808594 270.289062 62.175781 C 270.289062 62.445312 270.285156 62.722656 270.273438 63 C 270.234375 63.839844 270.140625 64.679688 270.027344 65.507812 C 269.519531 69.160156 267.320312 71.074219 263.558594 70.847656 C 261.613281 70.738281 259.667969 70.59375 257.71875 70.4375 C 257.449219 71.203125 257.085938 71.945312 256.59375 72.660156 C 256.273438 74.015625 256.828125 78.03125 257.015625 79.308594 C 257.683594 83.949219 257.953125 89.171875 256.535156 93.703125 C 255.503906 97 253.613281 99.707031 250.675781 101.539062 C 248.238281 103.0625 245.511719 104.300781 242.777344 105.160156 L 242.394531 105.277344 C 239.535156 108.039062 235.894531 109.652344 232.105469 110.726562 C 230.511719 111.183594 228.914062 111.535156 227.277344 111.804688 C 226.289062 111.96875 225.265625 112.089844 224.277344 112.300781 C 223.890625 112.378906 223.507812 112.476562 223.128906 112.609375 C 221.902344 113.027344 220.511719 113.945312 219.433594 114.660156 C 219.136719 114.859375 218.828125 115.070312 218.507812 115.289062 C 218.320312 116.613281 217.84375 117.984375 217.140625 119.179688 C 217.355469 121.027344 217.019531 123.160156 216.277344 124.949219 C 217.445312 126.722656 218.128906 128.726562 218.667969 130.777344 C 218.820312 131.351562 218.960938 131.96875 219.105469 132.597656 C 222.421875 132.34375 226.003906 134.199219 228.042969 136.8125 C 238.339844 133.339844 248.558594 129.671875 258.636719 125.789062 C 260.441406 125.097656 262.269531 124.578125 264.179688 125.261719 C 266.058594 125.941406 267.179688 127.488281 267.824219 129.308594 L 268.660156 131.671875 C 270.015625 135.515625 268.457031 138.378906 264.699219 139.730469 C 253.582031 143.722656 242.414062 147.605469 231.195312 151.34375 C 236.074219 155.300781 241.121094 159.007812 246.167969 162.753906 C 247.46875 163.71875 248.761719 164.898438 249.96875 165.980469 C 251.75 167.582031 253.511719 169.214844 255.257812 170.859375 C 257.019531 172.527344 258.769531 174.210938 260.484375 175.925781 C 261.632812 177.074219 262.957031 178.363281 263.953125 179.644531 C 264.621094 180.496094 265.320312 181.339844 266.015625 182.175781 C 266.582031 182.859375 267.222656 183.6875 267.847656 184.339844 C 273.789062 188.453125 277.648438 200.90625 277.644531 207.664062 C 277.695312 208.027344 278.046875 208.773438 278.199219 209.117188 C 278.679688 210.195312 279.152344 211.25 279.523438 212.371094 C 280.6875 215.890625 280.542969 219.25 278.761719 222.550781 C 278.269531 223.460938 277.988281 224.226562 277.617188 225.167969 C 276.945312 226.890625 275.960938 228.273438 274.820312 229.699219 C 274.199219 231.011719 273.953125 231.976562 272.554688 232.945312 C 272.542969 232.949219 272.535156 232.964844 272.523438 232.96875 C 272.527344 233.660156 272.390625 234.382812 272.09375 235.101562 C 271.53125 236.449219 270.554688 237.933594 269.648438 239.082031 C 269.097656 239.78125 268.789062 240.390625 268.566406 241.261719 C 267.96875 243.585938 267.632812 245.984375 265.746094 247.691406 C 264.941406 248.417969 264.023438 248.863281 263.042969 249.089844 C 261.515625 252.09375 260.273438 254.582031 260.273438 258.402344 C 260.273438 259.175781 260.316406 259.824219 260.863281 260.398438 C 261.878906 261.464844 263.085938 262.195312 264.148438 263.402344 C 265.277344 264.6875 268.125 266.949219 269.617188 267.796875 C 272.457031 269.410156 273.410156 269.554688 276.542969 270.304688 C 278.46875 270.769531 280.300781 271.269531 281.75 272.726562 C 283.855469 274.835938 283.921875 277.71875 283.394531 280.449219 C 284.074219 283.460938 282.222656 284.804688 279.574219 285.847656 C 276.769531 286.953125 271.609375 286.746094 268.46875 286.875 C 265.957031 286.976562 263.503906 286.996094 261 286.625 C 257.3125 286.082031 254.484375 284.433594 251.589844 282.203125 C 251.410156 282.058594 251.152344 281.855469 250.863281 281.621094 C 250.089844 282.757812 248.785156 283.457031 247.199219 283.386719 L 240.539062 283.386719 L 240.347656 283.371094 C 235.375 282.832031 234.171875 278.148438 234.789062 274.007812 C 234.886719 273.367188 235.082031 272.78125 235.367188 272.265625 C 235.140625 268.800781 235.65625 265.972656 237.167969 262.5 C 238.488281 259.453125 239.980469 256.175781 240.519531 252.882812 C 240.859375 250.824219 241.089844 247.796875 241.046875 245.527344 C 237.285156 246.480469 233.507812 246.660156 229.734375 247.523438 C 228.5625 247.785156 227.703125 248.152344 226.636719 248.667969 C 223.523438 250.1875 221.085938 250.722656 217.609375 251.050781 C 212.519531 251.527344 204.578125 252.496094 200.964844 248.132812 C 199.890625 246.835938 198.859375 245.464844 197.960938 244.039062 C 197.167969 242.78125 196.210938 240.5 195.25 237.730469 C 193.179688 243.714844 190.363281 252.371094 184.417969 255.636719 C 179.667969 258.238281 171.492188 255.167969 167.003906 253.050781 C 163.183594 251.246094 158.261719 248.339844 155.609375 245 C 155.421875 244.761719 155.214844 244.546875 154.996094 244.34375 C 153.222656 242.710938 149.6875 241.484375 147.464844 240.503906 C 144.15625 239.046875 141.28125 237.417969 138.636719 235.230469 L 135.949219 238.429688 C 134.867188 241.4375 131.765625 243.425781 129.34375 245.292969 C 128.320312 246.085938 127.152344 247.289062 126.210938 248.203125 C 125.359375 249.03125 124.1875 250.097656 123.410156 251.03125 C 122.046875 253.753906 121.140625 256.640625 119.433594 259.226562 C 118.472656 260.6875 118.339844 262.480469 118 264.152344 C 117.664062 265.824219 116.738281 267.464844 115.761719 268.898438 C 115.773438 269.554688 115.867188 270.359375 115.894531 270.929688 C 115.976562 272.535156 115.976562 274.144531 115.730469 275.738281 C 114.746094 282.050781 110.269531 285.144531 103.953125 285.144531 C 98.890625 285.144531 92.324219 281.761719 92.324219 276.027344 C 92.324219 271.328125 95.761719 264.546875 97.511719 260.089844 C 98.742188 256.949219 100.402344 253.734375 101.96875 250.75 C 103.503906 247.824219 105.121094 244.820312 106.882812 242.023438 C 107.386719 241.226562 107.867188 240.398438 108.300781 239.5625 C 108.792969 238.617188 109.765625 236.613281 110.386719 235.054688 C 110.285156 234.902344 110.1875 234.746094 110.097656 234.582031 C 107.683594 230.117188 112.378906 224.949219 114.667969 221.476562 C 115.199219 220.660156 115.640625 219.839844 116.027344 218.996094 C 113.578125 217.789062 111.101562 216.578125 108.84375 215.101562 C 106.492188 213.570312 104.433594 211.273438 105.265625 208.234375 C 105.941406 205.792969 108.09375 204.695312 110.328125 204.03125 C 110.910156 203.863281 111.664062 203.710938 112.210938 203.488281 C 115.058594 202.335938 117.804688 200.867188 120.542969 199.484375 C 122.140625 198.679688 123.71875 197.4375 125.171875 196.382812 C 127.304688 194.828125 129.433594 193.390625 131.832031 192.257812 C 133.070312 191.671875 134.527344 190.164062 135.476562 189.183594 C 137.304688 187.285156 139.035156 185.335938 140.964844 183.53125 C 143.925781 180.773438 147.832031 178.78125 150.382812 175.667969 C 150.578125 175.4375 150.769531 175.199219 150.964844 174.96875 C 143.695312 176.726562 136.40625 178.355469 129.09375 179.816406 C 122.109375 181.214844 115.082031 182.46875 108.023438 183.445312 C 102.230469 184.25 96.335938 184.894531 90.488281 185.085938 C 88.820312 185.140625 87.171875 184.425781 85.890625 183.386719 C 84.257812 182.0625 83.074219 180.0625 83.261719 177.90625 C 83.542969 174.574219 86.511719 173.007812 89.464844 172.515625 C 116.390625 168.023438 143.402344 161.617188 169.789062 154.425781 L 170.152344 153.941406 C 170.902344 151.335938 171.011719 148.53125 171.070312 145.847656 C 171.132812 142.945312 171.074219 139.589844 172.03125 136.828125 C 172.511719 135.449219 173.300781 134.34375 174.335938 133.542969 C 174.085938 132.546875 173.800781 131.558594 173.507812 130.574219 C 171.429688 123.675781 169.621094 118.296875 170.851562 111.035156 C 169.417969 102.832031 171.257812 94.988281 177.582031 89.25 C 180.203125 86.875 183.382812 85.367188 186.507812 83.796875 C 187.773438 83.164062 190.671875 81.523438 192.351562 80.234375 C 192.195312 79.398438 192.074219 78.53125 191.992188 77.667969 C 186.941406 76.359375 181.90625 74.441406 176.949219 71.992188 L 172.617188 69.847656 L 175.917969 66.320312 C 178.046875 64.03125 180.347656 61.792969 182.75 59.625 C 163.277344 56.0625 143.875 52.046875 124.632812 47.4375 C 114.65625 45.050781 104.722656 42.421875 94.886719 39.507812 C 86.097656 36.898438 77.320312 34.0625 68.746094 30.800781 C 62.238281 28.328125 55.402344 25.5 49.375 21.992188 C 45.738281 19.875 40.59375 16.496094 39.304688 12.234375 L 37.125 5.050781 L 44.074219 7.867188 C 57.007812 13.09375 70.355469 17.570312 83.6875 21.660156 C 98.914062 26.324219 114.316406 30.503906 129.777344 34.296875 C 151.953125 39.738281 174.65625 44.578125 197.304688 48.09375 C 199.992188 46.199219 202.707031 44.40625 205.390625 42.730469 L 207.132812 41.640625 L 208.945312 42.589844 " fill-opacity="1" fill-rule="evenodd"/></g><path fill="#13293d" d="M 42.734375 11.191406 C 85.839844 28.628906 156.949219 46.246094 206.613281 53.085938 L 207.40625 48.488281 L 210.453125 49.015625 L 209.722656 53.257812 C 217.546875 54.347656 251.789062 59.058594 262.378906 59.757812 C 263.984375 59.867188 266.703125 59.984375 266.707031 62.179688 C 266.707031 62.390625 266.703125 62.609375 266.691406 62.828125 C 266.652344 63.625 266.554688 64.449219 266.476562 65.011719 C 266.253906 66.621094 265.8125 67.386719 263.773438 67.265625 C 247.15625 66.285156 224.808594 62.882812 208.460938 60.582031 L 207.566406 65.777344 L 204.515625 65.246094 L 205.433594 59.9375 C 178.8125 55.511719 151.695312 50.230469 125.46875 43.949219 C 85.089844 34.28125 45.5625 20.53125 42.734375 11.191406 " fill-opacity="1" fill-rule="evenodd"/><path fill="#13293d" d="M 264.445312 130.503906 L 265.277344 132.871094 C 265.949219 134.765625 265.453125 135.644531 263.488281 136.347656 C 234.789062 146.660156 205.199219 156.378906 175.917969 164.679688 C 143.417969 173.894531 110.199219 180.84375 90.371094 181.496094 C 87.976562 181.582031 83.925781 177.078125 90.050781 176.058594 C 141.722656 167.4375 211.140625 147.941406 259.925781 129.136719 C 262.148438 128.285156 263.558594 128.007812 264.445312 130.503906 " fill-opacity="1" fill-rule="evenodd"/><path fill="#13293d" d="M 215.796875 58.925781 C 224.53125 63.484375 223.933594 78.238281 216.289062 85.523438 C 217.691406 85.519531 224.019531 83.121094 227.410156 83.761719 C 227.464844 85.863281 227.117188 87.984375 226.652344 89.851562 C 228.414062 86.097656 229.257812 82.15625 229.738281 78.320312 C 230.109375 75.328125 229.632812 72.761719 230.238281 69.585938 C 227.886719 69.011719 222.679688 67.875 222.398438 63.132812 C 222.535156 62.898438 222.929688 60.964844 222.917969 60.726562 C 222.898438 60.035156 223.074219 55.167969 224.039062 53.046875 C 224.445312 52.160156 226.253906 51.660156 226.976562 52.566406 C 228.460938 51.484375 229.375 50.96875 231.230469 51.820312 C 232.492188 52.394531 233.175781 50.878906 234.496094 52.515625 C 235.054688 53.199219 236.617188 52.089844 238.300781 54.125 C 238.667969 54.5625 239.070312 56.835938 239.070312 57.4375 C 239.511719 58.117188 239.75 60.226562 239.75 62.300781 C 240.007812 59.796875 240.976562 57.457031 241.402344 54.90625 C 241.675781 53.292969 242.167969 51.492188 243.253906 51.222656 C 244.636719 50.882812 245.667969 52.003906 245.507812 52.746094 C 245.648438 52.492188 246.53125 51.636719 247.480469 51.816406 C 248.535156 52.011719 249.261719 53.050781 249.109375 53.4375 C 249.617188 52.804688 251.769531 53.167969 251.945312 54.761719 C 256.449219 54.714844 255.140625 60.824219 255.015625 63.949219 C 254.929688 66.15625 254.925781 68.964844 253.457031 70.882812 C 252.574219 72.40625 252.949219 76.25 253.464844 79.824219 C 254.269531 85.363281 254.09375 89.503906 253.113281 92.632812 C 252.273438 95.316406 250.824219 97.21875 248.78125 98.488281 C 246.742188 99.765625 244.261719 100.929688 241.703125 101.734375 C 242.144531 98.671875 241.867188 95.878906 241.867188 95.878906 C 241.738281 98.554688 241.117188 101.503906 239.992188 102.605469 C 237.601562 104.957031 234.445312 106.332031 231.128906 107.273438 C 226.527344 108.582031 224.523438 108.339844 221.972656 109.210938 C 218.421875 110.417969 213.914062 114.601562 211.472656 115.28125 C 212.160156 115.398438 213.996094 115.105469 214.992188 114.550781 C 214.925781 115.1875 214.53125 117.148438 213.238281 118.429688 C 214.027344 119.613281 213.480469 124.121094 211.84375 125.277344 C 215.296875 128.230469 215.285156 133.917969 216.878906 137.621094 C 218.59375 134.71875 223.945312 136.554688 225.695312 139.746094 C 228.121094 144.164062 226.683594 146.214844 227.847656 153.242188 C 233.113281 157.582031 237.601562 160.863281 244.035156 165.636719 C 246.855469 167.730469 259.042969 179.179688 261.128906 181.851562 C 261.867188 182.796875 264.960938 186.582031 265.5625 187.132812 C 270.351562 190.101562 274.066406 201.707031 274.066406 207.742188 C 274.066406 210.582031 278.742188 215.039062 275.609375 220.847656 C 273.835938 224.125 274.84375 223.941406 271.863281 227.652344 C 271.472656 228.136719 271.21875 229.503906 270.511719 229.996094 C 268.253906 231.566406 264.460938 232.144531 264.457031 232.140625 C 266.59375 232 267.378906 232.007812 267.828125 232.035156 C 268.859375 232.105469 269.167969 232.785156 268.777344 233.730469 C 268.285156 234.914062 267.226562 236.363281 266.835938 236.855469 C 266.222656 237.632812 265.535156 238.65625 265.09375 240.367188 C 264.257812 243.613281 264.144531 245.976562 260.75 245.664062 C 258.976562 249.292969 256.6875 252.742188 256.6875 258.402344 C 256.6875 262.949219 259.292969 263.3125 261.457031 265.769531 C 262.8125 267.320312 266.203125 269.992188 267.851562 270.921875 C 271.304688 272.878906 272.03125 272.914062 275.707031 273.796875 C 278.835938 274.550781 280.96875 275.160156 279.730469 280.414062 C 279.796875 281.683594 280.722656 281.542969 278.261719 282.511719 C 276.320312 283.273438 270.882812 283.179688 268.320312 283.289062 C 266.074219 283.382812 263.863281 283.421875 261.523438 283.074219 C 254.972656 282.105469 251.917969 276.535156 248.050781 275.875 C 248.050781 275.898438 248.050781 277.828125 248.050781 278.988281 C 248.050781 279.507812 247.902344 279.84375 247.296875 279.796875 L 240.726562 279.796875 C 237.921875 279.5 238.085938 276.214844 238.335938 274.542969 C 238.472656 273.632812 238.835938 273.875 239.125 273.792969 C 238.621094 269.980469 238.917969 267.472656 240.457031 263.929688 C 241.898438 260.613281 243.460938 257.117188 244.0625 253.46875 C 244.371094 251.566406 244.722656 247.082031 244.601562 244.667969 C 244.480469 242.21875 242.429688 241.464844 240.296875 242.015625 C 236.097656 243.097656 233.792969 242.917969 228.941406 244.023438 C 224.367188 245.058594 224.621094 246.785156 217.277344 247.472656 C 212.222656 247.949219 205.972656 248.550781 203.722656 245.84375 C 202.90625 244.847656 201.875 243.523438 200.992188 242.125 C 197.980469 237.347656 193.472656 218.890625 193.695312 215.019531 C 193.097656 217.742188 193.707031 224.433594 194.738281 229.632812 C 190.9375 236.894531 191.097656 241.414062 187.429688 247.265625 C 185.679688 250.050781 184.183594 251.667969 182.691406 252.488281 C 177.964844 255.082031 162.722656 248.191406 158.414062 242.765625 C 154.421875 237.734375 145.96875 238.226562 138.332031 230.019531 L 132.710938 236.703125 C 132.339844 238.847656 129.324219 240.78125 127.15625 242.449219 C 126.058594 243.292969 120.675781 248.507812 120.351562 249.128906 C 119.246094 251.292969 117.917969 255.015625 116.445312 257.25 C 115.070312 259.328125 114.957031 261.125 114.488281 263.4375 C 114.308594 264.335938 113.742188 265.566406 112.367188 267.503906 C 111.308594 268.988281 115.789062 281.558594 103.953125 281.558594 C 100.628906 281.558594 95.910156 279.375 95.910156 276.027344 C 95.910156 272.429688 98.742188 266.773438 100.847656 261.398438 C 102.511719 257.160156 107.394531 247.941406 109.914062 243.9375 C 110.457031 243.078125 111.003906 242.132812 111.480469 241.21875 C 112.117188 239.992188 114.976562 233.921875 114.363281 233.71875 C 110.40625 232.429688 116.453125 225.285156 117.664062 223.453125 C 118.8125 221.703125 119.582031 220.035156 120.550781 217.253906 C 116.996094 215.40625 113.535156 213.878906 110.804688 212.097656 C 108.832031 210.8125 108.527344 209.90625 108.726562 209.1875 C 109.132812 207.710938 112.148438 207.386719 113.558594 206.816406 C 116.402344 205.664062 119.230469 204.167969 122.152344 202.691406 C 125.5 201.003906 128.730469 197.695312 133.359375 195.503906 C 136.453125 194.042969 139.429688 189.878906 143.410156 186.160156 C 146.367188 183.402344 150.261719 181.480469 153.15625 177.949219 C 158.480469 171.453125 168.851562 161.890625 173.40625 155.570312 C 175.472656 149.179688 173.996094 142.097656 175.417969 138.007812 C 175.964844 136.4375 177.109375 135.816406 178.441406 135.714844 C 177.152344 127.582031 172.617188 120.785156 174.496094 111.023438 C 172.984375 103.347656 174.71875 96.695312 179.992188 91.910156 C 182.253906 89.855469 185.226562 88.457031 188.113281 87.007812 C 191.257812 85.433594 195.390625 82.734375 196.3125 81.371094 C 195.890625 80.023438 194.84375 76.648438 194.832031 73.386719 C 194.140625 72.027344 194.1875 68.839844 194.789062 67.394531 C 195.089844 66.671875 195.75 66.472656 196.328125 66.625 C 197.132812 63.933594 198.539062 61.527344 200.863281 60.054688 C 202.714844 58.875 205.109375 58.210938 208.140625 58.210938 C 208.050781 54.515625 208.226562 51.222656 212.105469 54.273438 C 213.324219 55.230469 216.089844 51.933594 216.734375 55.238281 C 216.988281 56.527344 216.648438 57.90625 215.796875 58.925781 Z M 241.503906 81.496094 C 240.84375 77.617188 239.890625 73.320312 239.398438 70.230469 C 239.078125 68.25 239.210938 66.613281 239.230469 66.5625 C 239.464844 65.996094 239.617188 65.054688 239.691406 63.976562 C 239.71875 64.660156 239.816406 65.363281 240 66.09375 C 240.65625 68.660156 243.625 68.394531 244.78125 71.246094 C 244.734375 76.257812 244.28125 79.210938 241.503906 81.496094 " fill-opacity="1" fill-rule="evenodd"/><path fill="#13293d" d="M 178.53125 68.769531 C 198.394531 78.582031 218.511719 78.628906 235.808594 66.140625 C 226.3125 57.128906 218.027344 51.382812 207.289062 45.773438 C 197.269531 52.042969 186.441406 60.308594 178.53125 68.769531 " fill-opacity="1" fill-rule="evenodd"/><g clip-path="url(#5a215ed51d)"><path fill="#13293d" d="M 44.617188 291.21875 C 58.65625 287.929688 88.660156 278.292969 104.429688 276.226562 C 108.613281 275.675781 120.292969 274.503906 130.234375 273.339844 C 141.808594 271.976562 152.347656 271.300781 164.046875 271.214844 C 179.5625 271.101562 197.355469 272.390625 212.867188 272.664062 C 234.820312 273.042969 258.792969 275 278.246094 277.6875 C 291.578125 279.527344 309.269531 283.527344 320.957031 287.511719 C 321.046875 287.726562 307.132812 285.488281 294.113281 285.207031 C 287.332031 285.058594 263.984375 282.496094 269.117188 288.378906 C 271.808594 291.457031 275.644531 295.429688 269.421875 294.734375 C 249.375 292.496094 251.394531 289.117188 235.457031 285.355469 C 225.082031 282.910156 210.730469 280.558594 223.027344 288.863281 C 227.617188 291.964844 218.105469 298.835938 201.601562 290.28125 C 196.90625 287.847656 172.84375 281.296875 181.472656 289.070312 C 185.121094 292.351562 176.460938 299.128906 168.796875 290.335938 C 164.457031 285.355469 156.066406 286.101562 149.773438 285.835938 C 144.757812 285.628906 139.929688 286.492188 135.253906 287.558594 C 127.808594 289.253906 123.828125 295.117188 115.378906 297.609375 C 108.667969 299.597656 102.664062 301.136719 100.320312 298.109375 C 98.96875 296.371094 95.042969 291.476562 102.671875 288.460938 C 106.992188 286.753906 100.925781 285.941406 98.84375 286.0625 C 92.910156 286.421875 84.179688 287.273438 76.566406 288.066406 C 65.929688 289.183594 55.089844 290.988281 44.617188 291.21875 " fill-opacity="1" fill-rule="evenodd"/></g><g fill="#13293d" fill-opacity="1"><g transform="translate(31.213177, 365.865849)"><g><path d="M 32.683594 -24.761719 L 52.496094 -50.019531 L 54.574219 -64.378906 L 49.621094 -64.378906 L 47.839844 -51.503906 L 26.742188 -24.761719 Z M 15.945312 -64.378906 C 13.171875 -64.378906 10.695312 -62.199219 10.300781 -59.429688 C 9.90625 -56.65625 11.785156 -54.476562 14.558594 -54.476562 L 13.867188 -50.019531 L 24.367188 -29.316406 L 28.03125 -33.875 L 19.117188 -51.503906 L 20.898438 -64.378906 Z M 28.226562 0 L 31 -19.808594 L 26.050781 -19.808594 L 23.277344 0 Z M 28.226562 0 "/></g></g></g><g fill="#13293d" fill-opacity="1"><g transform="translate(81.327027, 365.865849)"><g><path d="M 2.675781 -5.152344 L 1.980469 0 L 6.933594 0 L 7.625 -4.953125 L 24.464844 -59.429688 L 34.269531 -59.429688 L 34.964844 -64.378906 L 24.265625 -64.378906 L 19.710938 -60.417969 Z M 39.914062 -4.953125 L 39.222656 0 L 44.175781 0 L 44.867188 -5.152344 L 44.175781 -60.417969 L 40.808594 -64.378906 L 39.914062 -64.378906 L 39.222656 -59.429688 Z M 34.863281 -14.855469 L 34.765625 -19.808594 L 17.136719 -19.808594 L 15.648438 -14.855469 Z M 34.863281 -14.855469 "/></g></g></g><g fill="#13293d" fill-opacity="1"><g transform="translate(127.479323, 365.865849)"><g><path d="M 33.578125 -21.394531 L 37.140625 -25.949219 L 20.207031 -59.429688 L 20.898438 -64.378906 L 15.945312 -64.378906 L 15.054688 -57.941406 Z M 66.164062 0 L 72.996094 -48.929688 L 66.957031 -41.402344 L 61.210938 0 Z M 11.886719 0 L 17.628906 -41.402344 L 13.765625 -48.929688 L 6.933594 0 Z M 40.609375 -15.453125 L 74.285156 -57.941406 L 75.175781 -64.378906 L 70.222656 -64.378906 L 69.53125 -59.429688 L 35.953125 -16.9375 L 34.964844 -10.5 L 39.914062 -10.5 Z M 40.609375 -15.453125 "/></g></g></g><g fill="#13293d" fill-opacity="1"><g transform="translate(200.570292, 365.865849)"><g><path d="M 2.675781 -5.152344 L 1.980469 0 L 6.933594 0 L 7.625 -4.953125 L 24.464844 -59.429688 L 34.269531 -59.429688 L 34.964844 -64.378906 L 24.265625 -64.378906 L 19.710938 -60.417969 Z M 39.914062 -4.953125 L 39.222656 0 L 44.175781 0 L 44.867188 -5.152344 L 44.175781 -60.417969 L 40.808594 -64.378906 L 39.914062 -64.378906 L 39.222656 -59.429688 Z M 34.863281 -14.855469 L 34.765625 -19.808594 L 17.136719 -19.808594 L 15.648438 -14.855469 Z M 34.863281 -14.855469 "/></g></g></g><g fill="#13293d" fill-opacity="1"><g transform="translate(246.722587, 365.865849)"><g><path d="M 50.910156 -59.429688 L 51.601562 -64.378906 L 10.996094 -64.378906 L 10.300781 -59.429688 Z M 24.761719 0 L 32.386719 -54.476562 L 27.4375 -54.476562 L 19.808594 0 Z M 24.761719 0 "/></g></g></g><g fill="#13293d" fill-opacity="1"><g transform="translate(291.290256, 365.865849)"><g><path d="M 41.597656 0 L 46.054688 -3.960938 L 53.980469 -60.417969 L 50.613281 -64.378906 L 49.621094 -64.378906 L 40.609375 0 Z M 43.976562 -59.429688 L 44.671875 -64.378906 L 19.910156 -64.378906 L 15.351562 -60.417969 L 7.429688 -3.960938 L 10.894531 0 L 35.65625 0 L 36.351562 -4.953125 L 12.578125 -4.953125 L 20.207031 -59.429688 Z M 43.976562 -59.429688 "/></g></g></g></svg>