<svg xmlns="http://www.w3.org/2000/svg" xmlns:xlink="http://www.w3.org/1999/xlink" width="500" zoomAndPan="magnify" viewBox="0 0 375 374.999991" height="500" preserveAspectRatio="xMidYMid meet" version="1.0"><defs><clipPath id="3f71508cd3"><path d="M 20 15.382812 L 369.414062 15.382812 L 369.414062 342 L 20 342 Z M 20 15.382812 " clip-rule="nonzero"/></clipPath><clipPath id="fb13f8648c"><path d="M 5.09375 8.96875 L 305 8.96875 L 305 351 L 5.09375 351 Z M 5.09375 8.96875 " clip-rule="nonzero"/></clipPath><clipPath id="d7ddc53212"><path d="M 14.21875 331 L 350 331 L 350 365.96875 L 14.21875 365.96875 Z M 14.21875 331 " clip-rule="nonzero"/></clipPath></defs><g clip-path="url(#3f71508cd3)"><path fill="#247ba0" d="M 286.207031 341.683594 L 286.476562 341.441406 C 287.589844 340.429688 294.386719 333.910156 295.371094 334.5625 C 309.496094 326.222656 338.140625 295.605469 342.757812 281.011719 C 347.695312 265.421875 361.253906 258.851562 367.503906 228.179688 C 367.800781 226.753906 368.035156 227.800781 368.035156 224.804688 C 366.328125 222.753906 349.558594 223.839844 347.785156 222.539062 C 347.699219 222.476562 332.015625 222.417969 329.644531 222.015625 C 327.050781 221.582031 324.636719 222.34375 320.828125 221.53125 C 320.164062 221.390625 311.070312 221.3125 308.886719 221.039062 C 306.027344 220.683594 302.019531 219.914062 299.160156 219.914062 C 300.253906 219.195312 306.53125 219.425781 308.804688 218.964844 C 312.707031 218.175781 323.613281 218.738281 326.699219 217.378906 C 326.753906 217.351562 339.203125 217.242188 342.089844 216.398438 C 351.03125 213.785156 362.585938 217.550781 366.578125 212.4375 C 367.375 211.414062 368.335938 211.335938 368.402344 209.363281 C 368.464844 207.457031 368.492188 205.554688 368.976562 203.550781 C 369.589844 201.046875 369.378906 184.054688 369.378906 179.945312 C 369.140625 179.128906 365.472656 154.316406 365.472656 153.246094 C 365.472656 152.960938 365.082031 150.636719 364.570312 147.972656 C 363.398438 141.882812 361.472656 141.546875 359.988281 141.113281 C 358.839844 140.777344 358.742188 139.761719 354.539062 139.847656 C 346.792969 139.992188 336.050781 139.789062 334.441406 139.167969 C 331.625 138.074219 312.441406 139.261719 309.292969 138.191406 C 308.761719 138.003906 297.125 137.394531 294.636719 137.296875 C 301.300781 136.082031 304.636719 136.5 306.917969 135.863281 C 307.09375 135.820312 311.605469 135.824219 315.882812 135.445312 C 320.621094 135.03125 325.203125 134.226562 326.246094 134.1875 C 331.503906 133.964844 337.507812 133.839844 338.980469 133.210938 C 341.304688 132.207031 357.484375 134.445312 359.609375 133.265625 C 358.15625 128.597656 357.496094 130.6875 356.554688 125.40625 C 355.402344 118.933594 349.585938 114.777344 347.730469 106.527344 C 347.308594 104.648438 345.976562 103.289062 345.925781 102.472656 C 342.066406 100.40625 342.691406 95.207031 339.15625 91.71875 C 334.410156 87.050781 323.25 66.835938 316.761719 64.675781 C 315.476562 61.292969 306.222656 56.183594 298.769531 52.074219 C 295.101562 50.058594 293.457031 47.792969 291.832031 46.585938 C 290 45.234375 286.453125 43.207031 284.476562 41.914062 C 283.1875 41.078125 281.964844 40.027344 277.128906 39.976562 C 259.652344 39.796875 219.539062 40.882812 213.546875 40.882812 C 219.746094 39.574219 244.726562 36.664062 252.5625 35.550781 C 259.851562 34.507812 268.851562 33.550781 269.972656 33.550781 C 270.136719 33.617188 258.214844 27.464844 252.835938 25.996094 C 249.609375 25.113281 244.734375 23.351562 239.726562 21.820312 C 232.972656 19.753906 225.855469 18.496094 222.101562 18.640625 C 221.191406 18.675781 212.632812 17.273438 209.15625 17.417969 C 201.132812 17.761719 193.714844 15.535156 186.53125 15.894531 C 179.808594 16.238281 173.316406 19.175781 165.867188 19.601562 C 162.898438 19.761719 155.21875 22.222656 152 22.546875 C 142.285156 26.238281 134.625 24.023438 123.0625 34.449219 C 121.671875 35.710938 103.554688 42.503906 95.09375 49.96875 C 89.667969 54.757812 77.757812 61.015625 73.726562 67.074219 C 70.625 71.742188 63.210938 74.457031 57.804688 83.082031 C 57.675781 83.289062 56.332031 84.707031 54.554688 86.613281 C 52.054688 89.292969 49.90625 92.898438 49.328125 96.554688 C 48.972656 98.773438 47.859375 101.257812 55.335938 101.609375 C 58.449219 101.75 62.976562 102.839844 66.292969 102.839844 C 71.816406 102.839844 78.125 104.0625 84.027344 104.0625 C 91.195312 104.0625 99.257812 104.546875 106.371094 104.546875 C 107.402344 104.546875 109.386719 105.097656 110.722656 105.097656 C 110.054688 105.058594 109.222656 105.621094 107.25 105.984375 C 103.945312 106.597656 91.28125 107.609375 87.878906 107.609375 C 85.828125 107.609375 74.539062 107.789062 73.113281 108.429688 C 70.867188 109.4375 54.859375 108.316406 49.816406 109.636719 C 48.699219 109.9375 43.085938 110.539062 41.851562 110.539062 C 40.292969 111.015625 34.035156 121.453125 33.796875 124.558594 C 33.65625 126.417969 28.726562 136.78125 27.929688 139.863281 C 25.902344 144.222656 20.601562 169.578125 20.601562 173.957031 C 20.3125 175.402344 20.449219 175.613281 21.765625 175.613281 C 24.277344 175.613281 25.699219 175.773438 28.097656 175.917969 C 28.097656 175.917969 28.273438 175.910156 28.292969 175.910156 C 30.222656 175.910156 30.828125 175.941406 32.65625 176.148438 C 35.457031 176.453125 36.707031 176.769531 39.753906 176.769531 C 44.449219 176.769531 49.085938 176.988281 53.773438 177.074219 C 56.386719 177.121094 59.652344 177.929688 61.695312 177.929688 C 68.519531 177.46875 87.6875 176.328125 93.628906 177.503906 C 97.527344 178.277344 123.417969 180.8125 125.625 179.523438 C 121.742188 184.386719 61.539062 180.171875 55.125 183.253906 C 51.71875 184.886719 36.335938 185.15625 30.394531 186.144531 C 28.894531 186.390625 21.957031 185.691406 20.847656 186.609375 C 20.84375 191.367188 20.484375 195.878906 20.484375 200.921875 C 20.484375 202.253906 21.460938 202.839844 21.460938 206.652344 C 21.460938 209.957031 22.578125 212.472656 22.4375 216.644531 C 22.410156 217.296875 23.007812 220.089844 23.414062 220.585938 C 24.25 221.039062 23.53125 225.199219 23.53125 226.375 C 23.53125 231.382812 29.230469 243.445312 29.152344 244.410156 C 32.777344 244.707031 35.492188 246.835938 40.542969 246.734375 C 42.128906 246.699219 47.144531 247.46875 49.953125 247.46875 C 54.238281 247.46875 69.691406 247.023438 72.507812 247.34375 C 68.375 251.285156 53.425781 250.222656 46.105469 251.800781 C 42.527344 252.574219 35.429688 253.332031 31.71875 253.332031 C 40.695312 282.523438 51.324219 281.523438 56.800781 294.378906 C 58.660156 298.757812 72.828125 316.933594 76.664062 319.5625 C 79.996094 323.734375 99.835938 339.195312 105.667969 341.683594 L 286.207031 341.683594 " fill-opacity="1" fill-rule="evenodd"/></g><g clip-path="url(#fb13f8648c)"><path fill="#e8f1f2" d="M 233.203125 95.167969 C 232.835938 96.808594 232.339844 98.433594 231.71875 99.988281 C 232.472656 99.898438 233.226562 99.835938 233.984375 99.820312 C 234.132812 98.945312 234.257812 98.058594 234.371094 97.175781 C 234.480469 96.308594 234.53125 95.457031 234.558594 94.617188 C 234.105469 94.800781 233.652344 94.984375 233.203125 95.167969 Z M 213.484375 54.433594 C 219.042969 57.335938 224.140625 60.347656 228.988281 63.613281 C 230.5 62.074219 232.796875 61.363281 234.921875 61.667969 C 237.003906 60.617188 239.050781 60.402344 241.527344 61.339844 C 243.570312 60.992188 245.179688 61.257812 246.6875 62.535156 C 248.035156 62.695312 249.148438 62.996094 250.183594 63.628906 C 251.023438 62.226562 252.238281 61.113281 254.019531 60.671875 C 255.695312 60.253906 257.449219 60.546875 258.898438 61.324219 C 259.597656 61.207031 260.308594 61.207031 260.988281 61.332031 C 262.160156 61.554688 263.3125 62.132812 264.265625 62.9375 C 265.808594 63.21875 267.289062 64.027344 268.359375 65.238281 C 269.515625 65.601562 270.578125 66.234375 271.46875 67.160156 C 272.433594 68.15625 273.042969 69.273438 273.417969 70.46875 C 275.125 70.632812 276.828125 70.777344 278.527344 70.890625 C 279.390625 70.949219 280.242188 71.007812 281.09375 71.152344 C 284.808594 71.785156 287.824219 74.082031 287.828125 78.15625 C 287.828125 78.484375 287.824219 78.820312 287.808594 79.15625 C 287.761719 80.175781 287.648438 81.191406 287.507812 82.191406 C 286.894531 86.617188 284.230469 88.933594 279.671875 88.664062 C 277.3125 88.527344 274.957031 88.351562 272.59375 88.160156 C 272.265625 89.089844 271.824219 89.992188 271.230469 90.855469 C 270.839844 92.496094 271.515625 97.359375 271.742188 98.910156 C 272.550781 104.527344 272.878906 110.855469 271.160156 116.34375 C 269.90625 120.335938 267.621094 123.613281 264.058594 125.832031 C 261.105469 127.675781 257.800781 129.179688 254.484375 130.21875 L 254.019531 130.363281 C 250.554688 133.707031 246.140625 135.660156 241.550781 136.960938 C 239.617188 137.511719 237.683594 137.941406 235.703125 138.265625 C 234.5 138.464844 233.261719 138.609375 232.066406 138.867188 C 231.59375 138.960938 231.128906 139.082031 230.675781 139.242188 C 229.1875 139.75 227.5 140.859375 226.191406 141.726562 C 225.832031 141.96875 225.460938 142.222656 225.070312 142.488281 C 224.84375 144.09375 224.265625 145.75 223.414062 147.199219 C 223.671875 149.441406 223.269531 152.019531 222.367188 154.191406 C 223.785156 156.335938 224.609375 158.765625 225.265625 161.246094 C 225.453125 161.941406 225.621094 162.6875 225.796875 163.449219 C 229.8125 163.144531 234.15625 165.390625 236.628906 168.554688 C 249.105469 164.351562 261.492188 159.90625 273.703125 155.207031 C 275.890625 154.363281 278.109375 153.738281 280.425781 154.566406 C 282.703125 155.386719 284.058594 157.261719 284.839844 159.464844 L 285.851562 162.332031 C 287.496094 166.988281 285.605469 170.457031 281.054688 172.089844 C 267.578125 176.925781 254.042969 181.628906 240.449219 186.152344 C 246.363281 190.949219 252.476562 195.4375 258.597656 199.972656 C 260.167969 201.148438 261.734375 202.574219 263.203125 203.882812 C 265.359375 205.820312 267.496094 207.800781 269.613281 209.796875 C 271.746094 211.816406 273.867188 213.855469 275.945312 215.929688 C 277.339844 217.320312 278.941406 218.878906 280.148438 220.433594 C 280.960938 221.464844 281.804688 222.488281 282.648438 223.5 C 283.332031 224.328125 284.109375 225.328125 284.871094 226.121094 C 292.070312 231.101562 296.75 246.183594 296.742188 254.371094 C 296.804688 254.8125 297.230469 255.714844 297.414062 256.132812 C 297.996094 257.4375 298.570312 258.71875 299.023438 260.074219 C 300.429688 264.335938 300.253906 268.402344 298.09375 272.402344 C 297.5 273.503906 297.160156 274.429688 296.707031 275.574219 C 295.898438 277.65625 294.699219 279.332031 293.316406 281.0625 C 292.566406 282.648438 292.265625 283.816406 290.574219 284.992188 C 290.558594 285 290.550781 285.015625 290.535156 285.019531 C 290.539062 285.855469 290.375 286.734375 290.011719 287.605469 C 289.332031 289.238281 288.152344 291.03125 287.054688 292.425781 C 286.382812 293.273438 286.011719 294.007812 285.742188 295.066406 C 285.015625 297.882812 284.609375 300.785156 282.320312 302.851562 C 281.34375 303.734375 280.234375 304.269531 279.046875 304.546875 C 277.195312 308.183594 275.691406 311.195312 275.691406 315.824219 C 275.691406 316.761719 275.742188 317.550781 276.402344 318.242188 C 277.632812 319.535156 279.097656 320.421875 280.382812 321.878906 C 281.757812 323.4375 285.207031 326.179688 287.015625 327.207031 C 290.453125 329.160156 291.609375 329.335938 295.40625 330.242188 C 297.738281 330.804688 299.964844 331.410156 301.714844 333.175781 C 304.269531 335.730469 304.351562 339.222656 303.707031 342.527344 C 304.535156 346.175781 302.292969 347.804688 299.082031 349.070312 C 295.683594 350.40625 289.425781 350.15625 285.621094 350.3125 C 282.578125 350.4375 279.601562 350.457031 276.566406 350.011719 C 272.101562 349.347656 268.671875 347.355469 265.164062 344.652344 C 264.945312 344.476562 264.636719 344.234375 264.285156 343.945312 C 263.347656 345.324219 261.765625 346.171875 259.84375 346.085938 L 251.769531 346.085938 L 251.539062 346.066406 C 245.511719 345.414062 244.054688 339.742188 244.804688 334.726562 C 244.921875 333.949219 245.160156 333.238281 245.507812 332.617188 C 245.230469 328.417969 245.855469 324.996094 247.683594 320.785156 C 249.285156 317.097656 251.09375 313.128906 251.75 309.140625 C 252.160156 306.644531 252.441406 302.976562 252.386719 300.230469 C 247.828125 301.382812 243.253906 301.605469 238.675781 302.648438 C 237.257812 302.96875 236.21875 303.410156 234.925781 304.035156 C 231.148438 305.875 228.195312 306.527344 223.984375 306.921875 C 217.816406 307.496094 208.191406 308.671875 203.808594 303.390625 C 202.507812 301.816406 201.261719 300.15625 200.167969 298.429688 C 199.207031 296.90625 198.050781 294.144531 196.882812 290.785156 C 194.375 298.039062 190.960938 308.519531 183.757812 312.472656 C 178 315.625 168.089844 311.90625 162.652344 309.34375 C 158.019531 307.15625 152.054688 303.640625 148.839844 299.589844 C 148.617188 299.304688 148.367188 299.042969 148.101562 298.800781 C 145.945312 296.820312 141.664062 295.335938 138.972656 294.148438 C 134.960938 292.378906 131.476562 290.410156 128.269531 287.761719 L 125.015625 291.632812 C 123.703125 295.277344 119.941406 297.6875 117.007812 299.945312 C 115.765625 300.910156 114.355469 302.367188 113.210938 303.472656 C 112.179688 304.476562 110.757812 305.769531 109.816406 306.898438 C 108.164062 310.195312 107.066406 313.691406 105 316.824219 C 103.832031 318.59375 103.671875 320.765625 103.261719 322.792969 C 102.851562 324.816406 101.730469 326.800781 100.546875 328.539062 C 100.5625 329.335938 100.671875 330.308594 100.707031 331 C 100.808594 332.941406 100.808594 334.894531 100.507812 336.820312 C 99.316406 344.46875 93.894531 348.214844 86.238281 348.214844 C 80.101562 348.214844 72.140625 344.117188 72.140625 337.171875 C 72.140625 331.480469 76.308594 323.265625 78.429688 317.871094 C 79.921875 314.066406 81.933594 310.175781 83.832031 306.554688 C 85.691406 303.011719 87.652344 299.375 89.789062 295.988281 C 90.398438 295.019531 90.980469 294.019531 91.503906 293.007812 C 92.101562 291.863281 93.28125 289.433594 94.035156 287.542969 C 93.910156 287.363281 93.792969 287.175781 93.683594 286.972656 C 90.757812 281.566406 96.449219 275.308594 99.222656 271.097656 C 99.867188 270.113281 100.402344 269.121094 100.867188 268.097656 C 97.898438 266.632812 94.898438 265.167969 92.164062 263.382812 C 89.3125 261.523438 86.816406 258.742188 87.828125 255.0625 C 88.644531 252.109375 91.253906 250.773438 93.964844 249.972656 C 94.667969 249.765625 95.582031 249.582031 96.246094 249.3125 C 99.695312 247.917969 103.023438 246.140625 106.34375 244.464844 C 108.28125 243.488281 110.191406 241.984375 111.949219 240.707031 C 114.539062 238.824219 117.117188 237.085938 120.023438 235.710938 C 121.523438 235 123.292969 233.175781 124.4375 231.988281 C 126.65625 229.6875 128.757812 227.328125 131.09375 225.144531 C 134.679688 221.800781 139.417969 219.386719 142.507812 215.617188 C 142.742188 215.335938 142.976562 215.050781 143.210938 214.769531 C 134.40625 216.902344 125.566406 218.875 116.707031 220.644531 C 108.238281 222.339844 99.722656 223.855469 91.167969 225.039062 C 84.148438 226.011719 77.003906 226.792969 69.917969 227.023438 C 67.894531 227.09375 65.894531 226.226562 64.34375 224.96875 C 62.367188 223.363281 60.933594 220.941406 61.160156 218.328125 C 61.5 214.296875 65.101562 212.394531 68.675781 211.800781 C 101.308594 206.359375 134.050781 198.601562 166.027344 189.886719 L 166.46875 189.300781 C 167.375 186.148438 167.507812 182.75 167.578125 179.5 C 167.65625 175.980469 167.585938 171.917969 168.746094 168.574219 C 169.328125 166.90625 170.285156 165.566406 171.535156 164.597656 C 171.234375 163.390625 170.890625 162.191406 170.535156 161 C 168.015625 152.644531 165.820312 146.132812 167.3125 137.332031 C 165.578125 127.402344 167.804688 117.902344 175.472656 110.949219 C 178.644531 108.074219 182.5 106.246094 186.289062 104.347656 C 187.824219 103.578125 191.335938 101.589844 193.371094 100.027344 C 193.183594 99.015625 193.039062 97.96875 192.9375 96.921875 C 186.8125 95.335938 180.714844 93.011719 174.703125 90.046875 L 169.453125 87.449219 L 173.453125 83.175781 C 176.035156 80.40625 178.820312 77.695312 181.734375 75.066406 C 158.136719 70.753906 134.621094 65.886719 111.300781 60.304688 C 99.207031 57.414062 87.167969 54.234375 75.25 50.699219 C 64.59375 47.542969 53.957031 44.105469 43.566406 40.15625 C 35.679688 37.160156 27.394531 33.734375 20.09375 29.488281 C 15.679688 26.921875 9.445312 22.828125 7.882812 17.667969 L 5.246094 8.96875 L 13.667969 12.375 C 29.339844 18.710938 45.515625 24.132812 61.675781 29.082031 C 80.128906 34.734375 98.796875 39.796875 117.535156 44.390625 C 144.410156 50.980469 171.925781 56.84375 199.371094 61.101562 C 202.632812 58.808594 205.921875 56.632812 209.171875 54.601562 L 211.285156 53.285156 L 213.484375 54.433594 " fill-opacity="1" fill-rule="evenodd"/></g><path fill="#13293d" d="M 12.039062 16.40625 C 64.285156 37.527344 150.464844 58.863281 210.652344 67.144531 L 211.617188 61.578125 L 215.3125 62.214844 L 214.425781 67.355469 C 223.910156 68.675781 265.40625 74.382812 278.242188 75.226562 C 280.1875 75.359375 283.484375 75.503906 283.488281 78.160156 C 283.488281 78.414062 283.484375 78.679688 283.46875 78.945312 C 283.417969 79.914062 283.304688 80.910156 283.207031 81.59375 C 282.9375 83.542969 282.402344 84.46875 279.933594 84.324219 C 259.792969 83.136719 232.707031 79.011719 212.898438 76.226562 L 211.8125 82.519531 L 208.113281 81.878906 L 209.226562 75.445312 C 176.964844 70.085938 144.097656 63.6875 112.3125 56.082031 C 63.378906 44.371094 15.46875 27.714844 12.039062 16.40625 " fill-opacity="1" fill-rule="evenodd"/><path fill="#13293d" d="M 280.746094 160.914062 L 281.757812 163.78125 C 282.566406 166.074219 281.964844 167.144531 279.585938 167.996094 C 244.804688 180.480469 208.941406 192.257812 173.453125 202.308594 C 134.0625 213.46875 93.808594 221.886719 69.777344 222.679688 C 66.871094 222.777344 61.964844 217.328125 69.386719 216.089844 C 132.011719 205.652344 216.140625 182.035156 275.265625 159.261719 C 277.960938 158.230469 279.671875 157.894531 280.746094 160.914062 " fill-opacity="1" fill-rule="evenodd"/><path fill="#13293d" d="M 221.785156 74.222656 C 232.371094 79.742188 231.644531 97.613281 222.382812 106.4375 C 224.085938 106.429688 231.75 103.523438 235.863281 104.300781 C 235.925781 106.847656 235.507812 109.417969 234.941406 111.675781 C 237.078125 107.132812 238.101562 102.355469 238.679688 97.710938 C 239.132812 94.089844 238.554688 90.976562 239.285156 87.132812 C 236.4375 86.4375 230.128906 85.058594 229.789062 79.316406 C 229.953125 79.03125 230.429688 76.691406 230.417969 76.402344 C 230.394531 75.5625 230.605469 69.671875 231.777344 67.101562 C 232.265625 66.027344 234.460938 65.421875 235.335938 66.519531 C 237.132812 65.207031 238.242188 64.585938 240.488281 65.613281 C 242.019531 66.308594 242.847656 64.476562 244.449219 66.453125 C 245.125 67.285156 247.019531 65.941406 249.0625 68.402344 C 249.503906 68.933594 249.992188 71.691406 249.992188 72.417969 C 250.527344 73.238281 250.8125 75.792969 250.8125 78.308594 C 251.128906 75.273438 252.300781 72.441406 252.816406 69.351562 C 253.148438 67.394531 253.75 65.214844 255.0625 64.890625 C 256.738281 64.480469 257.988281 65.835938 257.792969 66.734375 C 257.964844 66.429688 259.035156 65.390625 260.183594 65.605469 C 261.464844 65.847656 262.339844 67.105469 262.160156 67.570312 C 262.773438 66.804688 265.382812 67.246094 265.597656 69.175781 C 271.054688 69.121094 269.46875 76.519531 269.316406 80.304688 C 269.210938 82.980469 269.207031 86.378906 267.429688 88.703125 C 266.359375 90.546875 266.8125 95.203125 267.4375 99.53125 C 268.410156 106.242188 268.199219 111.257812 267.015625 115.042969 C 265.992188 118.296875 264.238281 120.601562 261.761719 122.140625 C 259.292969 123.683594 256.28125 125.097656 253.183594 126.070312 C 253.71875 122.359375 253.382812 118.976562 253.382812 118.976562 C 253.226562 122.21875 252.472656 125.792969 251.109375 127.125 C 248.210938 129.972656 244.382812 131.640625 240.367188 132.777344 C 234.789062 134.363281 232.363281 134.070312 229.273438 135.125 C 224.964844 136.585938 219.503906 141.652344 216.542969 142.480469 C 217.378906 142.621094 219.601562 142.265625 220.808594 141.59375 C 220.730469 142.363281 220.253906 144.738281 218.6875 146.292969 C 219.640625 147.726562 218.976562 153.183594 216.992188 154.585938 C 221.179688 158.164062 221.164062 165.046875 223.097656 169.539062 C 225.175781 166.019531 231.660156 168.246094 233.785156 172.109375 C 236.722656 177.460938 234.980469 179.945312 236.394531 188.453125 C 242.773438 193.710938 248.210938 197.683594 256.007812 203.46875 C 259.425781 206.003906 274.199219 219.871094 276.726562 223.109375 C 277.621094 224.253906 281.371094 228.835938 282.101562 229.503906 C 287.90625 233.101562 292.40625 247.15625 292.40625 254.46875 C 292.40625 257.90625 298.070312 263.300781 294.273438 270.335938 C 292.125 274.3125 293.347656 274.085938 289.738281 278.582031 C 289.261719 279.167969 288.957031 280.824219 288.09375 281.421875 C 285.359375 283.320312 280.765625 284.023438 280.757812 284.015625 C 283.347656 283.847656 284.300781 283.855469 284.84375 283.890625 C 286.097656 283.976562 286.46875 284.796875 285.996094 285.941406 C 285.402344 287.375 284.113281 289.132812 283.644531 289.730469 C 282.898438 290.671875 282.066406 291.910156 281.53125 293.984375 C 280.519531 297.914062 280.378906 300.773438 276.269531 300.398438 C 274.121094 304.792969 271.34375 308.972656 271.34375 315.824219 C 271.34375 321.332031 274.5 321.773438 277.125 324.75 C 278.765625 326.625 282.878906 329.863281 284.875 330.988281 C 289.058594 333.359375 289.9375 333.40625 294.394531 334.472656 C 298.1875 335.382812 300.769531 336.121094 299.273438 342.484375 C 299.351562 344.023438 300.472656 343.851562 297.488281 345.023438 C 295.136719 345.953125 288.546875 345.835938 285.441406 345.964844 C 282.71875 346.082031 280.039062 346.128906 277.203125 345.707031 C 269.265625 344.535156 265.5625 337.789062 260.875 336.988281 C 260.875 337.015625 260.875 339.351562 260.875 340.761719 C 260.875 341.386719 260.695312 341.796875 259.964844 341.738281 L 252 341.738281 C 248.601562 341.375 248.800781 337.398438 249.101562 335.375 C 249.265625 334.269531 249.707031 334.566406 250.058594 334.464844 C 249.449219 329.847656 249.808594 326.808594 251.671875 322.519531 C 253.417969 318.503906 255.3125 314.269531 256.042969 309.847656 C 256.417969 307.546875 256.84375 302.117188 256.699219 299.191406 C 256.546875 296.222656 254.0625 295.3125 251.480469 295.976562 C 246.386719 297.289062 243.597656 297.070312 237.714844 298.410156 C 232.171875 299.664062 232.480469 301.753906 223.578125 302.585938 C 217.453125 303.164062 209.878906 303.894531 207.152344 300.613281 C 206.164062 299.410156 204.914062 297.800781 203.84375 296.109375 C 200.191406 290.324219 194.730469 267.96875 195 263.28125 C 194.273438 266.578125 195.015625 274.683594 196.261719 280.980469 C 191.65625 289.773438 191.851562 295.25 187.402344 302.335938 C 185.285156 305.710938 183.472656 307.667969 181.664062 308.660156 C 175.9375 311.800781 157.464844 303.460938 152.242188 296.886719 C 147.402344 290.792969 137.160156 291.386719 127.90625 281.445312 L 121.089844 289.542969 C 120.636719 292.140625 116.984375 294.484375 114.359375 296.503906 C 113.027344 297.527344 106.503906 303.839844 106.113281 304.589844 C 104.769531 307.210938 103.164062 311.722656 101.375 314.429688 C 99.710938 316.949219 99.570312 319.125 99.007812 321.925781 C 98.785156 323.011719 98.101562 324.503906 96.433594 326.851562 C 95.148438 328.648438 100.582031 343.871094 86.238281 343.871094 C 82.207031 343.871094 76.488281 341.226562 76.488281 337.171875 C 76.488281 332.8125 79.921875 325.964844 82.472656 319.453125 C 84.488281 314.324219 90.410156 303.152344 93.460938 298.308594 C 94.117188 297.265625 94.78125 296.117188 95.359375 295.011719 C 96.132812 293.527344 99.597656 286.175781 98.851562 285.929688 C 94.058594 284.367188 101.382812 275.714844 102.851562 273.492188 C 104.242188 271.375 105.179688 269.355469 106.351562 265.988281 C 102.046875 263.746094 97.847656 261.898438 94.539062 259.738281 C 92.152344 258.1875 91.78125 257.089844 92.019531 256.214844 C 92.515625 254.425781 96.167969 254.035156 97.878906 253.34375 C 101.324219 251.949219 104.75 250.136719 108.296875 248.347656 C 112.351562 246.304688 116.265625 242.296875 121.875 239.644531 C 125.625 237.871094 129.230469 232.832031 134.058594 228.324219 C 137.640625 224.984375 142.359375 222.660156 145.867188 218.378906 C 152.320312 210.511719 164.890625 198.933594 170.410156 191.277344 C 172.917969 183.535156 171.125 174.960938 172.847656 170.003906 C 173.511719 168.101562 174.898438 167.347656 176.511719 167.226562 C 174.949219 157.375 169.453125 149.144531 171.730469 137.324219 C 169.898438 128.023438 172 119.964844 178.390625 114.171875 C 181.132812 111.683594 184.734375 109.988281 188.234375 108.234375 C 192.046875 106.324219 197.054688 103.058594 198.171875 101.40625 C 197.660156 99.773438 196.390625 95.6875 196.378906 91.734375 C 195.542969 90.089844 195.597656 86.226562 196.328125 84.476562 C 196.6875 83.601562 197.488281 83.359375 198.191406 83.546875 C 199.167969 80.285156 200.871094 77.371094 203.6875 75.589844 C 205.933594 74.160156 208.832031 73.355469 212.507812 73.355469 C 212.398438 68.878906 212.613281 64.890625 217.3125 68.582031 C 218.792969 69.746094 222.140625 65.753906 222.921875 69.757812 C 223.226562 71.316406 222.816406 72.984375 221.785156 74.222656 Z M 252.941406 101.554688 C 252.140625 96.859375 250.984375 91.652344 250.390625 87.910156 C 250.003906 85.515625 250.164062 83.53125 250.1875 83.472656 C 250.46875 82.785156 250.652344 81.640625 250.746094 80.339844 C 250.78125 81.167969 250.894531 82.019531 251.121094 82.898438 C 251.917969 86.011719 255.511719 85.691406 256.914062 89.144531 C 256.859375 95.210938 256.308594 98.789062 252.941406 101.554688 " fill-opacity="1" fill-rule="evenodd"/><path fill="#13293d" d="M 176.621094 86.140625 C 200.695312 98.027344 225.074219 98.082031 246.039062 82.960938 C 234.53125 72.046875 224.488281 65.085938 211.476562 58.292969 C 199.332031 65.882812 186.207031 75.894531 176.621094 86.140625 " fill-opacity="1" fill-rule="evenodd"/><g clip-path="url(#d7ddc53212)"><path fill="#13293d" d="M 14.324219 355.574219 C 31.339844 351.589844 67.703125 339.917969 86.8125 337.414062 C 91.886719 336.746094 106.042969 335.328125 118.089844 333.914062 C 132.117188 332.265625 144.890625 331.449219 159.066406 331.34375 C 177.871094 331.203125 199.4375 332.769531 218.234375 333.097656 C 244.839844 333.558594 273.894531 335.929688 297.46875 339.183594 C 313.628906 341.410156 335.070312 346.257812 349.238281 351.082031 C 349.34375 351.34375 332.480469 348.632812 316.703125 348.292969 C 308.480469 348.109375 280.1875 345.007812 286.40625 352.136719 C 289.667969 355.863281 294.320312 360.671875 286.777344 359.832031 C 262.480469 357.121094 264.929688 353.027344 245.613281 348.472656 C 233.039062 345.511719 215.648438 342.660156 230.550781 352.722656 C 236.113281 356.472656 224.585938 364.796875 204.578125 354.433594 C 198.890625 351.488281 169.726562 343.554688 180.1875 352.972656 C 184.609375 356.945312 174.113281 365.152344 164.824219 354.503906 C 159.5625 348.472656 149.398438 349.375 141.769531 349.054688 C 135.691406 348.804688 129.835938 349.851562 124.175781 351.136719 C 115.152344 353.191406 110.324219 360.292969 100.082031 363.3125 C 91.949219 365.71875 84.675781 367.582031 81.835938 363.921875 C 80.199219 361.8125 75.4375 355.882812 84.683594 352.230469 C 89.917969 350.164062 82.566406 349.179688 80.042969 349.328125 C 72.851562 349.765625 62.269531 350.792969 53.046875 351.753906 C 40.152344 353.105469 27.019531 355.292969 14.324219 355.574219 " fill-opacity="1" fill-rule="evenodd"/></g></svg>