<svg xmlns="http://www.w3.org/2000/svg" xmlns:xlink="http://www.w3.org/1999/xlink" width="500" zoomAndPan="magnify" viewBox="0 0 375 374.999991" height="500" preserveAspectRatio="xMidYMid meet" version="1.0"><defs><g/><clipPath id="016d77afcd"><path d="M 130 65.230469 L 245 65.230469 L 245 179 L 130 179 Z M 130 65.230469 " clip-rule="nonzero"/></clipPath><clipPath id="a685331270"><path d="M 114.953125 77 L 259.699219 77 L 259.699219 217.476562 L 114.953125 217.476562 Z M 114.953125 77 " clip-rule="nonzero"/></clipPath></defs><rect x="-37.5" width="450" fill="#ffffff" y="-37.499999" height="449.999989" fill-opacity="1"/><rect x="-37.5" width="450" fill="#ffffff" y="-37.499999" height="449.999989" fill-opacity="1"/><rect x="-37.5" width="450" fill="#ffffff" y="-37.499999" height="449.999989" fill-opacity="1"/><g clip-path="url(#016d77afcd)"><path fill="#1b98e0" d="M 187.324219 65.230469 C 218.714844 65.230469 244.15625 90.6875 244.15625 122.09375 C 244.15625 153.492188 218.714844 178.949219 187.324219 178.949219 C 155.941406 178.949219 130.492188 153.492188 130.492188 122.09375 C 130.492188 90.6875 155.941406 65.230469 187.324219 65.230469 " fill-opacity="1" fill-rule="evenodd"/></g><g clip-path="url(#a685331270)"><path fill="#13293d" d="M 248.273438 170.003906 C 245.378906 172.089844 242.152344 173.746094 238.691406 174.867188 C 235.34375 175.949219 231.785156 176.535156 228.109375 176.535156 L 209.8125 176.535156 L 209.8125 199.828125 L 241.183594 199.828125 L 241.183594 198.582031 L 243.722656 198.582031 L 243.722656 208.625 L 252.304688 208.625 L 252.304688 211.167969 L 122.347656 211.167969 L 122.347656 208.625 L 130.929688 208.625 L 130.929688 198.582031 L 133.472656 198.582031 L 133.472656 199.828125 L 164.839844 199.828125 L 164.839844 176.535156 L 146.546875 176.535156 C 142.867188 176.535156 139.308594 175.949219 135.960938 174.867188 C 132.503906 173.746094 129.273438 172.089844 126.378906 170.003906 L 127.859375 167.949219 C 129.199219 168.914062 130.613281 169.78125 132.097656 170.535156 C 136.402344 171.589844 144.484375 172.160156 152.609375 171.203125 C 156.648438 170.726562 160.683594 169.875 164.230469 168.515625 L 164.230469 158.449219 L 171.109375 158.449219 L 171.109375 146.394531 L 155.15625 146.394531 C 152.230469 146.394531 149.394531 145.925781 146.726562 145.066406 C 143.96875 144.171875 141.398438 142.855469 139.09375 141.191406 L 140.570312 139.136719 C 141.609375 139.882812 142.707031 140.554688 143.851562 141.140625 C 147.230469 141.960938 153.550781 142.402344 159.910156 141.65625 C 162.90625 141.300781 165.890625 140.6875 168.550781 139.71875 L 168.550781 131.667969 L 173.113281 131.667969 L 173.113281 122.007812 L 159.242188 122.007812 C 156.667969 122.007812 154.179688 121.597656 151.832031 120.839844 C 149.410156 120.054688 147.152344 118.898438 145.125 117.4375 L 146.601562 115.378906 C 147.496094 116.027344 148.441406 116.605469 149.429688 117.109375 C 152.367188 117.820312 157.851562 118.199219 163.375 117.550781 C 166.011719 117.238281 168.636719 116.695312 170.96875 115.835938 L 170.96875 108.828125 L 175.226562 108.828125 L 175.226562 103.929688 L 162.335938 103.929688 C 160.03125 103.929688 157.800781 103.5625 155.703125 102.882812 C 153.53125 102.183594 151.507812 101.144531 149.691406 99.835938 L 151.171875 97.777344 C 151.957031 98.347656 152.785156 98.855469 153.65625 99.300781 C 156.257812 99.925781 161.109375 100.261719 165.996094 99.683594 C 168.328125 99.40625 170.65625 98.925781 172.71875 98.171875 L 172.71875 91.832031 L 177.308594 91.832031 L 177.308594 90.199219 L 165.710938 90.199219 C 163.703125 90.199219 161.753906 89.878906 159.917969 89.285156 C 158.023438 88.671875 156.257812 87.769531 154.671875 86.625 L 156.152344 84.566406 C 156.820312 85.050781 157.523438 85.480469 158.257812 85.859375 C 160.503906 86.394531 164.660156 86.679688 168.859375 86.183594 C 170.875 85.949219 172.886719 85.527344 174.664062 84.871094 L 174.664062 83.410156 L 186.058594 83.410156 L 186.058594 77.160156 L 188.597656 77.160156 L 188.597656 83.410156 L 199.988281 83.410156 L 199.988281 84.875 C 201.765625 85.527344 203.777344 85.949219 205.792969 86.183594 C 209.992188 86.679688 214.148438 86.394531 216.394531 85.859375 C 217.132812 85.480469 217.835938 85.050781 218.503906 84.566406 L 219.980469 86.625 C 218.394531 87.769531 216.628906 88.671875 214.734375 89.285156 C 212.898438 89.878906 210.953125 90.199219 208.945312 90.199219 L 197.34375 90.199219 L 197.34375 91.832031 L 202.015625 91.832031 L 202.015625 98.203125 C 204.0625 98.941406 206.351562 99.414062 208.652344 99.683594 C 213.542969 100.261719 218.390625 99.925781 221 99.300781 C 221.867188 98.855469 222.695312 98.347656 223.480469 97.777344 L 224.960938 99.835938 C 223.144531 101.144531 221.121094 102.183594 218.953125 102.882812 C 216.847656 103.5625 214.621094 103.929688 212.316406 103.929688 L 199.425781 103.929688 L 199.425781 108.828125 L 203.765625 108.828125 L 203.765625 115.867188 C 206.078125 116.707031 208.675781 117.242188 211.277344 117.550781 C 216.800781 118.199219 222.285156 117.820312 225.222656 117.109375 C 226.210938 116.605469 227.15625 116.027344 228.050781 115.378906 L 229.53125 117.4375 C 227.503906 118.898438 225.242188 120.054688 222.816406 120.839844 C 220.472656 121.597656 217.984375 122.007812 215.410156 122.007812 L 201.542969 122.007812 L 201.542969 131.667969 L 206.101562 131.667969 L 206.101562 139.71875 C 208.761719 140.6875 211.75 141.300781 214.742188 141.65625 C 221.101562 142.402344 227.421875 141.960938 230.800781 141.140625 C 231.945312 140.554688 233.042969 139.882812 234.082031 139.136719 L 235.5625 141.191406 C 233.257812 142.855469 230.683594 144.171875 227.925781 145.066406 C 225.257812 145.925781 222.425781 146.394531 219.496094 146.394531 L 203.542969 146.394531 L 203.542969 158.449219 L 210.421875 158.449219 L 210.421875 168.515625 C 213.972656 169.875 218.003906 170.726562 222.042969 171.203125 C 230.167969 172.160156 238.25 171.589844 242.554688 170.535156 C 244.039062 169.78125 245.453125 168.914062 246.796875 167.949219 Z M 198.363281 193.117188 L 207.273438 193.117188 L 207.273438 189.710938 L 198.363281 189.710938 Z M 207.273438 195.660156 L 198.363281 195.660156 L 198.363281 199.828125 L 207.273438 199.828125 Z M 198.363281 187.164062 L 207.273438 187.164062 L 207.273438 176.535156 L 167.378906 176.535156 L 167.378906 187.164062 L 176.292969 187.164062 L 176.292969 182.628906 L 198.363281 182.628906 Z M 167.378906 193.117188 L 176.292969 193.117188 L 176.292969 189.710938 L 167.378906 189.710938 Z M 176.292969 195.660156 L 167.378906 195.660156 L 167.378906 199.828125 L 176.292969 199.828125 Z M 259.699219 217.476562 L 114.953125 217.476562 L 114.953125 214.933594 L 259.699219 214.933594 Z M 133.472656 202.371094 L 133.472656 208.625 L 147.101562 208.625 L 147.101562 202.371094 Z M 149.644531 202.371094 L 149.644531 208.625 L 160.15625 208.625 L 160.15625 202.371094 Z M 162.699219 202.371094 L 162.699219 208.625 L 164.839844 208.625 L 164.839844 202.371094 Z M 176.292969 202.371094 L 167.378906 202.371094 L 167.378906 208.625 L 176.292969 208.625 Z M 209.8125 202.371094 L 209.8125 208.625 L 211.953125 208.625 L 211.953125 202.371094 Z M 214.496094 202.371094 L 214.496094 208.625 L 225.007812 208.625 L 225.007812 202.371094 Z M 227.550781 202.371094 L 227.550781 208.625 L 241.183594 208.625 L 241.183594 202.371094 Z M 207.273438 202.371094 L 198.363281 202.371094 L 198.363281 208.625 L 207.273438 208.625 Z M 169.921875 168.578125 C 165.210938 171.429688 159.046875 173.003906 152.898438 173.726562 C 151.996094 173.832031 151.09375 173.921875 150.199219 173.992188 L 224.457031 173.992188 C 223.558594 173.921875 222.65625 173.832031 221.753906 173.726562 C 215.609375 173.003906 209.441406 171.429688 204.730469 168.578125 Z M 173.652344 158.449219 L 201.003906 158.449219 L 201.003906 146.394531 L 173.652344 146.394531 Z M 207.882812 160.992188 L 203.542969 160.992188 L 203.542969 166.035156 L 207.882812 166.035156 Z M 201.003906 160.992188 L 194.824219 160.992188 L 194.824219 166.035156 L 201.003906 166.035156 Z M 192.28125 160.992188 L 182.234375 160.992188 L 182.234375 166.035156 L 192.28125 166.035156 Z M 179.691406 160.992188 L 173.652344 160.992188 L 173.652344 166.035156 L 179.691406 166.035156 Z M 171.109375 160.992188 L 166.769531 160.992188 L 166.769531 166.035156 L 171.109375 166.035156 Z M 175.652344 131.667969 L 199 131.667969 L 199 122.007812 L 175.652344 122.007812 Z M 201.285156 140.292969 L 173.371094 140.292969 C 170.273438 142.078125 166.453125 143.203125 162.519531 143.847656 L 212.132812 143.847656 C 208.203125 143.203125 204.378906 142.078125 201.285156 140.292969 Z M 203.558594 134.210938 L 201.542969 134.210938 L 201.542969 137.75 L 203.558594 137.75 Z M 199 134.210938 L 193.589844 134.210938 L 193.589844 137.75 L 199 137.75 Z M 191.046875 134.210938 L 183.496094 134.210938 L 183.496094 137.75 L 191.046875 137.75 Z M 180.953125 134.210938 L 175.652344 134.210938 L 175.652344 137.75 L 180.953125 137.75 Z M 173.113281 134.210938 L 171.09375 134.210938 L 171.09375 137.75 L 173.113281 137.75 Z M 177.769531 108.828125 L 196.882812 108.828125 L 196.882812 103.929688 L 177.769531 103.929688 Z M 199.371094 116.625 L 175.28125 116.625 C 173.003906 117.953125 170.273438 118.867188 167.414062 119.464844 L 207.238281 119.464844 C 204.378906 118.867188 201.648438 117.953125 199.371094 116.625 Z M 201.226562 111.371094 L 199.425781 111.371094 L 199.425781 114.082031 L 201.226562 114.082031 Z M 196.882812 111.371094 L 192.953125 111.371094 L 192.953125 114.082031 L 196.882812 114.082031 Z M 190.414062 111.371094 L 184.226562 111.371094 L 184.226562 114.082031 L 190.414062 114.082031 Z M 181.6875 111.371094 L 177.769531 111.371094 L 177.769531 114.082031 L 181.6875 114.082031 Z M 175.226562 111.371094 L 173.515625 111.371094 L 173.515625 114.082031 L 175.226562 114.082031 Z M 179.851562 91.832031 L 194.800781 91.832031 L 194.800781 90.199219 L 179.851562 90.199219 Z M 197.804688 99.023438 L 176.847656 99.023438 C 175.097656 100.074219 173.03125 100.839844 170.847656 101.386719 L 203.808594 101.386719 C 201.621094 100.839844 199.558594 100.074219 197.804688 99.023438 Z M 199.476562 94.375 L 197.34375 94.375 L 197.34375 96.480469 L 199.476562 96.480469 Z M 194.800781 94.375 L 192.457031 94.375 L 192.457031 96.480469 L 194.800781 96.480469 Z M 189.914062 94.375 L 184.738281 94.375 L 184.738281 96.480469 L 189.914062 96.480469 Z M 182.199219 94.375 L 179.851562 94.375 L 179.851562 96.480469 L 182.199219 96.480469 Z M 177.308594 94.375 L 175.261719 94.375 L 175.261719 96.480469 L 177.308594 96.480469 Z M 195.816406 208.625 L 195.816406 185.171875 L 178.832031 185.171875 L 178.832031 208.625 Z M 200.316406 87.65625 C 198.882812 87.222656 197.535156 86.660156 196.34375 85.953125 L 178.308594 85.953125 C 177.121094 86.660156 175.769531 87.222656 174.335938 87.65625 L 200.316406 87.65625 " fill-opacity="1" fill-rule="nonzero"/></g><g fill="#13293d" fill-opacity="1"><g transform="translate(16.749476, 267.546787)"><g><path d="M 17.9375 -10.625 L 17.9375 0 L 11 0 L 11 -10.703125 L -0.59375 -29.96875 L 6.765625 -29.96875 L 14.765625 -16.65625 L 22.78125 -29.96875 L 29.578125 -29.96875 Z M 17.9375 -10.625 "/></g></g></g><g fill="#13293d" fill-opacity="1"><g transform="translate(74.375647, 267.546787)"><g><path d="M 23.296875 -6.421875 L 9.375 -6.421875 L 6.71875 0 L -0.390625 0 L 12.96875 -29.96875 L 19.828125 -29.96875 L 33.21875 0 L 25.9375 0 Z M 21.109375 -11.6875 L 16.359375 -23.15625 L 11.609375 -11.6875 Z M 21.109375 -11.6875 "/></g></g></g><g fill="#13293d" fill-opacity="1"><g transform="translate(135.85497, 267.546787)"><g><path d="M 30.828125 0 L 30.78125 -17.984375 L 21.96875 -3.171875 L 18.84375 -3.171875 L 10.0625 -17.59375 L 10.0625 0 L 3.546875 0 L 3.546875 -29.96875 L 9.296875 -29.96875 L 20.5 -11.34375 L 31.546875 -29.96875 L 37.25 -29.96875 L 37.328125 0 Z M 30.828125 0 "/></g></g></g><g fill="#13293d" fill-opacity="1"><g transform="translate(205.425977, 267.546787)"><g><path d="M 23.296875 -6.421875 L 9.375 -6.421875 L 6.71875 0 L -0.390625 0 L 12.96875 -29.96875 L 19.828125 -29.96875 L 33.21875 0 L 25.9375 0 Z M 21.109375 -11.6875 L 16.359375 -23.15625 L 11.609375 -11.6875 Z M 21.109375 -11.6875 "/></g></g></g><g fill="#13293d" fill-opacity="1"><g transform="translate(266.905301, 267.546787)"><g><path d="M 9.765625 -24.3125 L 0.171875 -24.3125 L 0.171875 -29.96875 L 26.28125 -29.96875 L 26.28125 -24.3125 L 16.703125 -24.3125 L 16.703125 0 L 9.765625 0 Z M 9.765625 -24.3125 "/></g></g></g><g fill="#13293d" fill-opacity="1"><g transform="translate(322.048282, 267.546787)"><g><path d="M 18.0625 0.515625 C 14.957031 0.515625 12.15625 -0.15625 9.65625 -1.5 C 7.15625 -2.84375 5.195312 -4.691406 3.78125 -7.046875 C 2.375 -9.398438 1.671875 -12.046875 1.671875 -14.984375 C 1.671875 -17.921875 2.375 -20.566406 3.78125 -22.921875 C 5.195312 -25.273438 7.15625 -27.125 9.65625 -28.46875 C 12.15625 -29.8125 14.957031 -30.484375 18.0625 -30.484375 C 21.175781 -30.484375 23.972656 -29.8125 26.453125 -28.46875 C 28.941406 -27.125 30.898438 -25.273438 32.328125 -22.921875 C 33.753906 -20.566406 34.46875 -17.921875 34.46875 -14.984375 C 34.46875 -12.046875 33.753906 -9.398438 32.328125 -7.046875 C 30.898438 -4.691406 28.941406 -2.84375 26.453125 -1.5 C 23.972656 -0.15625 21.175781 0.515625 18.0625 0.515625 Z M 18.0625 -5.390625 C 19.832031 -5.390625 21.429688 -5.796875 22.859375 -6.609375 C 24.285156 -7.421875 25.40625 -8.554688 26.21875 -10.015625 C 27.03125 -11.472656 27.4375 -13.128906 27.4375 -14.984375 C 27.4375 -16.835938 27.03125 -18.492188 26.21875 -19.953125 C 25.40625 -21.410156 24.285156 -22.546875 22.859375 -23.359375 C 21.429688 -24.171875 19.832031 -24.578125 18.0625 -24.578125 C 16.289062 -24.578125 14.691406 -24.171875 13.265625 -23.359375 C 11.835938 -22.546875 10.71875 -21.410156 9.90625 -19.953125 C 9.09375 -18.492188 8.6875 -16.835938 8.6875 -14.984375 C 8.6875 -13.128906 9.09375 -11.472656 9.90625 -10.015625 C 10.71875 -8.554688 11.835938 -7.421875 13.265625 -6.609375 C 14.691406 -5.796875 16.289062 -5.390625 18.0625 -5.390625 Z M 18.0625 -5.390625 "/></g></g></g><g fill="#1b98e0" fill-opacity="1"><g transform="translate(50.400647, 305.23742)"><g><path d="M 1.1875 -10.015625 L 5.734375 -10.015625 C 6.828125 -10.015625 7.789062 -9.804688 8.625 -9.390625 C 9.457031 -8.984375 10.101562 -8.398438 10.5625 -7.640625 C 11.03125 -6.890625 11.265625 -6.015625 11.265625 -5.015625 C 11.265625 -4.003906 11.03125 -3.125 10.5625 -2.375 C 10.101562 -1.625 9.457031 -1.039062 8.625 -0.625 C 7.789062 -0.207031 6.828125 0 5.734375 0 L 1.1875 0 Z M 5.625 -1.90625 C 6.625 -1.90625 7.421875 -2.179688 8.015625 -2.734375 C 8.617188 -3.296875 8.921875 -4.054688 8.921875 -5.015625 C 8.921875 -5.960938 8.617188 -6.710938 8.015625 -7.265625 C 7.421875 -7.828125 6.625 -8.109375 5.625 -8.109375 L 3.5 -8.109375 L 3.5 -1.90625 Z M 5.625 -1.90625 "/></g></g></g><g fill="#1b98e0" fill-opacity="1"><g transform="translate(66.638446, 305.23742)"><g><path d="M 8.953125 -1.859375 L 8.953125 0 L 1.1875 0 L 1.1875 -10.015625 L 8.765625 -10.015625 L 8.765625 -8.15625 L 3.5 -8.15625 L 3.5 -5.984375 L 8.140625 -5.984375 L 8.140625 -4.171875 L 3.5 -4.171875 L 3.5 -1.859375 Z M 8.953125 -1.859375 "/></g></g></g><g fill="#1b98e0" fill-opacity="1"><g transform="translate(80.658758, 305.23742)"><g><path d="M 5.984375 0.171875 C 4.960938 0.171875 4.035156 -0.046875 3.203125 -0.484375 C 2.378906 -0.929688 1.734375 -1.546875 1.265625 -2.328125 C 0.796875 -3.117188 0.5625 -4.015625 0.5625 -5.015625 C 0.5625 -6.003906 0.796875 -6.890625 1.265625 -7.671875 C 1.734375 -8.460938 2.378906 -9.078125 3.203125 -9.515625 C 4.035156 -9.960938 4.96875 -10.1875 6 -10.1875 C 6.863281 -10.1875 7.644531 -10.035156 8.34375 -9.734375 C 9.050781 -9.429688 9.644531 -8.992188 10.125 -8.421875 L 8.625 -7.046875 C 7.945312 -7.828125 7.109375 -8.21875 6.109375 -8.21875 C 5.492188 -8.21875 4.941406 -8.082031 4.453125 -7.8125 C 3.960938 -7.539062 3.582031 -7.160156 3.3125 -6.671875 C 3.039062 -6.179688 2.90625 -5.628906 2.90625 -5.015625 C 2.90625 -4.390625 3.039062 -3.832031 3.3125 -3.34375 C 3.582031 -2.863281 3.960938 -2.484375 4.453125 -2.203125 C 4.941406 -1.929688 5.492188 -1.796875 6.109375 -1.796875 C 7.109375 -1.796875 7.945312 -2.191406 8.625 -2.984375 L 10.125 -1.625 C 9.644531 -1.039062 9.050781 -0.59375 8.34375 -0.28125 C 7.632812 0.0195312 6.847656 0.171875 5.984375 0.171875 Z M 5.984375 0.171875 "/></g></g></g><g fill="#1b98e0" fill-opacity="1"><g transform="translate(95.566068, 305.23742)"><g><path d="M 8.953125 -1.859375 L 8.953125 0 L 1.1875 0 L 1.1875 -10.015625 L 8.765625 -10.015625 L 8.765625 -8.15625 L 3.5 -8.15625 L 3.5 -5.984375 L 8.140625 -5.984375 L 8.140625 -4.171875 L 3.5 -4.171875 L 3.5 -1.859375 Z M 8.953125 -1.859375 "/></g></g></g><g fill="#1b98e0" fill-opacity="1"><g transform="translate(109.58638, 305.23742)"><g><path d="M 10.375 -10.015625 L 10.375 0 L 8.46875 0 L 3.484375 -6.078125 L 3.484375 0 L 1.1875 0 L 1.1875 -10.015625 L 3.109375 -10.015625 L 8.09375 -3.9375 L 8.09375 -10.015625 Z M 10.375 -10.015625 "/></g></g></g><g fill="#1b98e0" fill-opacity="1"><g transform="translate(125.566679, 305.23742)"><g><path d="M 3.265625 -8.125 L 0.0625 -8.125 L 0.0625 -10.015625 L 8.78125 -10.015625 L 8.78125 -8.125 L 5.578125 -8.125 L 5.578125 0 L 3.265625 0 Z M 3.265625 -8.125 "/></g></g></g><g fill="#1b98e0" fill-opacity="1"><g transform="translate(138.828734, 305.23742)"><g><path d="M 7.578125 0 L 5.640625 -2.796875 L 3.5 -2.796875 L 3.5 0 L 1.1875 0 L 1.1875 -10.015625 L 5.53125 -10.015625 C 6.414062 -10.015625 7.179688 -9.863281 7.828125 -9.5625 C 8.484375 -9.269531 8.988281 -8.851562 9.34375 -8.3125 C 9.695312 -7.769531 9.875 -7.128906 9.875 -6.390625 C 9.875 -5.640625 9.691406 -4.992188 9.328125 -4.453125 C 8.972656 -3.921875 8.46875 -3.507812 7.8125 -3.21875 L 10.0625 0 Z M 7.53125 -6.390625 C 7.53125 -6.953125 7.347656 -7.378906 6.984375 -7.671875 C 6.617188 -7.972656 6.085938 -8.125 5.390625 -8.125 L 3.5 -8.125 L 3.5 -4.640625 L 5.390625 -4.640625 C 6.085938 -4.640625 6.617188 -4.789062 6.984375 -5.09375 C 7.347656 -5.394531 7.53125 -5.828125 7.53125 -6.390625 Z M 7.53125 -6.390625 "/></g></g></g><g fill="#1b98e0" fill-opacity="1"><g transform="translate(153.764659, 305.23742)"><g><path d="M 7.78125 -2.140625 L 3.140625 -2.140625 L 2.25 0 L -0.125 0 L 4.34375 -10.015625 L 6.625 -10.015625 L 11.109375 0 L 8.671875 0 Z M 7.0625 -3.90625 L 5.46875 -7.75 L 3.875 -3.90625 Z M 7.0625 -3.90625 "/></g></g></g><g fill="#1b98e0" fill-opacity="1"><g transform="translate(169.144075, 305.23742)"><g><path d="M 1.1875 -10.015625 L 3.5 -10.015625 L 3.5 -1.890625 L 8.53125 -1.890625 L 8.53125 0 L 1.1875 0 Z M 1.1875 -10.015625 "/></g></g></g><g fill="#1b98e0" fill-opacity="1"><g transform="translate(182.205841, 305.23742)"><g><path d="M 1.1875 -10.015625 L 3.5 -10.015625 L 3.5 0 L 1.1875 0 Z M 1.1875 -10.015625 "/></g></g></g><g fill="#1b98e0" fill-opacity="1"><g transform="translate(191.319037, 305.23742)"><g><path d="M 4.484375 0.171875 C 3.691406 0.171875 2.925781 0.0664062 2.1875 -0.140625 C 1.445312 -0.359375 0.851562 -0.640625 0.40625 -0.984375 L 1.1875 -2.734375 C 1.613281 -2.421875 2.125 -2.164062 2.71875 -1.96875 C 3.3125 -1.78125 3.90625 -1.6875 4.5 -1.6875 C 5.15625 -1.6875 5.640625 -1.785156 5.953125 -1.984375 C 6.265625 -2.179688 6.421875 -2.441406 6.421875 -2.765625 C 6.421875 -3.003906 6.328125 -3.203125 6.140625 -3.359375 C 5.960938 -3.515625 5.726562 -3.640625 5.4375 -3.734375 C 5.144531 -3.828125 4.75 -3.929688 4.25 -4.046875 C 3.488281 -4.234375 2.863281 -4.414062 2.375 -4.59375 C 1.882812 -4.769531 1.460938 -5.054688 1.109375 -5.453125 C 0.765625 -5.859375 0.59375 -6.398438 0.59375 -7.078125 C 0.59375 -7.648438 0.75 -8.171875 1.0625 -8.640625 C 1.382812 -9.117188 1.863281 -9.492188 2.5 -9.765625 C 3.132812 -10.046875 3.910156 -10.1875 4.828125 -10.1875 C 5.460938 -10.1875 6.082031 -10.109375 6.6875 -9.953125 C 7.300781 -9.804688 7.835938 -9.585938 8.296875 -9.296875 L 7.578125 -7.546875 C 6.660156 -8.066406 5.738281 -8.328125 4.8125 -8.328125 C 4.15625 -8.328125 3.671875 -8.222656 3.359375 -8.015625 C 3.054688 -7.804688 2.90625 -7.53125 2.90625 -7.1875 C 2.90625 -6.84375 3.082031 -6.585938 3.4375 -6.421875 C 3.800781 -6.253906 4.347656 -6.085938 5.078125 -5.921875 C 5.835938 -5.742188 6.460938 -5.5625 6.953125 -5.375 C 7.441406 -5.195312 7.859375 -4.910156 8.203125 -4.515625 C 8.554688 -4.128906 8.734375 -3.601562 8.734375 -2.9375 C 8.734375 -2.363281 8.570312 -1.835938 8.25 -1.359375 C 7.925781 -0.890625 7.445312 -0.515625 6.8125 -0.234375 C 6.175781 0.0351562 5.398438 0.171875 4.484375 0.171875 Z M 4.484375 0.171875 "/></g></g></g><g fill="#1b98e0" fill-opacity="1"><g transform="translate(204.867217, 305.23742)"><g><path d="M 8.953125 -1.859375 L 8.953125 0 L 1.1875 0 L 1.1875 -10.015625 L 8.765625 -10.015625 L 8.765625 -8.15625 L 3.5 -8.15625 L 3.5 -5.984375 L 8.140625 -5.984375 L 8.140625 -4.171875 L 3.5 -4.171875 L 3.5 -1.859375 Z M 8.953125 -1.859375 "/></g></g></g><g fill="#1b98e0" fill-opacity="1"><g transform="translate(218.887538, 305.23742)"><g><path d="M 1.1875 -10.015625 L 5.734375 -10.015625 C 6.828125 -10.015625 7.789062 -9.804688 8.625 -9.390625 C 9.457031 -8.984375 10.101562 -8.398438 10.5625 -7.640625 C 11.03125 -6.890625 11.265625 -6.015625 11.265625 -5.015625 C 11.265625 -4.003906 11.03125 -3.125 10.5625 -2.375 C 10.101562 -1.625 9.457031 -1.039062 8.625 -0.625 C 7.789062 -0.207031 6.828125 0 5.734375 0 L 1.1875 0 Z M 5.625 -1.90625 C 6.625 -1.90625 7.421875 -2.179688 8.015625 -2.734375 C 8.617188 -3.296875 8.921875 -4.054688 8.921875 -5.015625 C 8.921875 -5.960938 8.617188 -6.710938 8.015625 -7.265625 C 7.421875 -7.828125 6.625 -8.109375 5.625 -8.109375 L 3.5 -8.109375 L 3.5 -1.90625 Z M 5.625 -1.90625 "/></g></g></g><g fill="#1b98e0" fill-opacity="1"><g transform="translate(235.125328, 305.23742)"><g/></g></g><g fill="#1b98e0" fill-opacity="1"><g transform="translate(243.594736, 305.23742)"><g><path d="M 10.8125 -10.015625 L 6.484375 0 L 4.1875 0 L -0.125 -10.015625 L 2.375 -10.015625 L 5.421875 -2.859375 L 8.515625 -10.015625 Z M 10.8125 -10.015625 "/></g></g></g><g fill="#1b98e0" fill-opacity="1"><g transform="translate(258.688027, 305.23742)"><g><path d="M 6.046875 0.171875 C 5.003906 0.171875 4.0625 -0.0507812 3.21875 -0.5 C 2.382812 -0.945312 1.734375 -1.5625 1.265625 -2.34375 C 0.796875 -3.132812 0.5625 -4.023438 0.5625 -5.015625 C 0.5625 -5.992188 0.796875 -6.875 1.265625 -7.65625 C 1.734375 -8.445312 2.382812 -9.066406 3.21875 -9.515625 C 4.0625 -9.960938 5.003906 -10.1875 6.046875 -10.1875 C 7.078125 -10.1875 8.007812 -9.960938 8.84375 -9.515625 C 9.675781 -9.066406 10.328125 -8.445312 10.796875 -7.65625 C 11.273438 -6.875 11.515625 -5.992188 11.515625 -5.015625 C 11.515625 -4.023438 11.273438 -3.132812 10.796875 -2.34375 C 10.328125 -1.5625 9.675781 -0.945312 8.84375 -0.5 C 8.007812 -0.0507812 7.078125 0.171875 6.046875 0.171875 Z M 6.046875 -1.796875 C 6.628906 -1.796875 7.160156 -1.929688 7.640625 -2.203125 C 8.117188 -2.484375 8.492188 -2.863281 8.765625 -3.34375 C 9.035156 -3.832031 9.171875 -4.390625 9.171875 -5.015625 C 9.171875 -5.628906 9.035156 -6.179688 8.765625 -6.671875 C 8.492188 -7.160156 8.117188 -7.539062 7.640625 -7.8125 C 7.160156 -8.082031 6.628906 -8.21875 6.046875 -8.21875 C 5.453125 -8.21875 4.914062 -8.082031 4.4375 -7.8125 C 3.957031 -7.539062 3.582031 -7.160156 3.3125 -6.671875 C 3.039062 -6.179688 2.90625 -5.628906 2.90625 -5.015625 C 2.90625 -4.390625 3.039062 -3.832031 3.3125 -3.34375 C 3.582031 -2.863281 3.957031 -2.484375 4.4375 -2.203125 C 4.914062 -1.929688 5.453125 -1.796875 6.046875 -1.796875 Z M 6.046875 -1.796875 "/></g></g></g><g fill="#1b98e0" fill-opacity="1"><g transform="translate(275.183336, 305.23742)"><g><path d="M 3.265625 -8.125 L 0.0625 -8.125 L 0.0625 -10.015625 L 8.78125 -10.015625 L 8.78125 -8.125 L 5.578125 -8.125 L 5.578125 0 L 3.265625 0 Z M 3.265625 -8.125 "/></g></g></g><g fill="#1b98e0" fill-opacity="1"><g transform="translate(288.4454, 305.23742)"><g><path d="M 1.1875 -10.015625 L 3.5 -10.015625 L 3.5 0 L 1.1875 0 Z M 1.1875 -10.015625 "/></g></g></g><g fill="#1b98e0" fill-opacity="1"><g transform="translate(297.558605, 305.23742)"><g><path d="M 10.375 -10.015625 L 10.375 0 L 8.46875 0 L 3.484375 -6.078125 L 3.484375 0 L 1.1875 0 L 1.1875 -10.015625 L 3.109375 -10.015625 L 8.09375 -3.9375 L 8.09375 -10.015625 Z M 10.375 -10.015625 "/></g></g></g><g fill="#1b98e0" fill-opacity="1"><g transform="translate(313.538913, 305.23742)"><g><path d="M 7.953125 -5.171875 L 10.078125 -5.171875 L 10.078125 -1.109375 C 9.535156 -0.691406 8.90625 -0.375 8.1875 -0.15625 C 7.46875 0.0625 6.75 0.171875 6.03125 0.171875 C 4.988281 0.171875 4.050781 -0.046875 3.21875 -0.484375 C 2.382812 -0.929688 1.734375 -1.546875 1.265625 -2.328125 C 0.796875 -3.117188 0.5625 -4.015625 0.5625 -5.015625 C 0.5625 -6.003906 0.796875 -6.890625 1.265625 -7.671875 C 1.734375 -8.460938 2.390625 -9.078125 3.234375 -9.515625 C 4.078125 -9.960938 5.019531 -10.1875 6.0625 -10.1875 C 6.945312 -10.1875 7.742188 -10.035156 8.453125 -9.734375 C 9.171875 -9.441406 9.773438 -9.015625 10.265625 -8.453125 L 8.78125 -7.078125 C 8.0625 -7.835938 7.195312 -8.21875 6.1875 -8.21875 C 5.539062 -8.21875 4.96875 -8.082031 4.46875 -7.8125 C 3.976562 -7.539062 3.59375 -7.160156 3.3125 -6.671875 C 3.039062 -6.191406 2.90625 -5.640625 2.90625 -5.015625 C 2.90625 -4.390625 3.039062 -3.832031 3.3125 -3.34375 C 3.59375 -2.863281 3.976562 -2.484375 4.46875 -2.203125 C 4.957031 -1.929688 5.519531 -1.796875 6.15625 -1.796875 C 6.820312 -1.796875 7.421875 -1.941406 7.953125 -2.234375 Z M 7.953125 -5.171875 "/></g></g></g></svg>