<svg xmlns="http://www.w3.org/2000/svg" xmlns:xlink="http://www.w3.org/1999/xlink" width="600" zoomAndPan="magnify" viewBox="0 0 450 149.999998" height="200" preserveAspectRatio="xMidYMid meet" version="1.0"><defs><g/><clipPath id="c5191c9717"><path d="M 20 17.15625 L 137.191406 17.15625 L 137.191406 127 L 20 127 Z M 20 17.15625 " clip-rule="nonzero"/></clipPath><clipPath id="9847af1408"><path d="M 18.058594 123.230469 L 130.707031 123.230469 L 130.707031 135 L 18.058594 135 Z M 18.058594 123.230469 " clip-rule="nonzero"/></clipPath></defs><rect x="-45" width="540" fill="#ffffff" y="-15" height="179.999997" fill-opacity="1"/><rect x="-45" width="540" fill="#ffffff" y="-15" height="179.999997" fill-opacity="1"/><rect x="-45" width="540" fill="#ffffff" y="-15" height="179.999997" fill-opacity="1"/><g clip-path="url(#c5191c9717)"><path fill="#247ba0" d="M 109.285156 126.835938 L 109.375 126.753906 C 109.746094 126.414062 112.027344 124.222656 112.355469 124.441406 C 117.09375 121.640625 126.703125 111.347656 128.25 106.441406 C 129.90625 101.203125 134.453125 98.996094 136.550781 88.683594 C 136.648438 88.203125 136.730469 88.554688 136.730469 87.550781 C 136.15625 86.859375 130.53125 87.226562 129.9375 86.789062 C 129.90625 86.769531 124.648438 86.746094 123.851562 86.613281 C 122.980469 86.464844 122.171875 86.722656 120.894531 86.449219 C 120.671875 86.402344 117.621094 86.375 116.890625 86.285156 C 115.929688 86.164062 114.585938 85.90625 113.628906 85.90625 C 113.996094 85.664062 116.101562 85.742188 116.863281 85.585938 C 118.171875 85.320312 121.828125 85.511719 122.863281 85.054688 C 122.882812 85.042969 127.058594 85.007812 128.027344 84.726562 C 131.023438 83.84375 134.902344 85.113281 136.238281 83.390625 C 136.507812 83.046875 136.828125 83.023438 136.851562 82.359375 C 136.871094 81.71875 136.882812 81.078125 137.042969 80.40625 C 137.25 79.5625 137.179688 73.851562 137.179688 72.472656 C 137.101562 72.195312 135.867188 63.855469 135.867188 63.496094 C 135.867188 63.402344 135.738281 62.621094 135.566406 61.722656 C 135.171875 59.675781 134.527344 59.5625 134.03125 59.417969 C 133.644531 59.304688 133.613281 58.964844 132.203125 58.992188 C 129.605469 59.042969 126 58.972656 125.460938 58.765625 C 124.515625 58.398438 118.082031 58.796875 117.027344 58.4375 C 116.847656 58.375 112.945312 58.167969 112.109375 58.136719 C 114.347656 57.726562 115.464844 57.867188 116.230469 57.652344 C 116.289062 57.640625 117.800781 57.640625 119.238281 57.511719 C 120.824219 57.375 122.363281 57.101562 122.714844 57.089844 C 124.476562 57.015625 126.492188 56.972656 126.984375 56.761719 C 127.761719 56.425781 133.191406 57.175781 133.902344 56.78125 C 133.414062 55.210938 133.191406 55.914062 132.878906 54.140625 C 132.492188 51.960938 130.542969 50.566406 129.917969 47.792969 C 129.777344 47.160156 129.332031 46.703125 129.3125 46.429688 C 128.019531 45.734375 128.230469 43.988281 127.042969 42.816406 C 125.449219 41.246094 121.707031 34.449219 119.53125 33.726562 C 119.101562 32.585938 115.996094 30.871094 113.496094 29.488281 C 112.265625 28.8125 111.714844 28.050781 111.167969 27.644531 C 110.554688 27.191406 109.367188 26.507812 108.703125 26.074219 C 108.269531 25.792969 107.859375 25.441406 106.238281 25.421875 C 100.378906 25.363281 86.921875 25.726562 84.914062 25.726562 C 86.992188 25.289062 95.371094 24.308594 98 23.933594 C 100.445312 23.585938 103.460938 23.261719 103.839844 23.261719 C 103.894531 23.285156 99.894531 21.21875 98.089844 20.722656 C 97.007812 20.425781 95.375 19.835938 93.695312 19.320312 C 91.429688 18.625 89.042969 18.203125 87.78125 18.25 C 87.476562 18.261719 84.605469 17.789062 83.441406 17.839844 C 80.75 17.957031 78.261719 17.207031 75.851562 17.328125 C 73.597656 17.445312 71.421875 18.429688 68.921875 18.574219 C 67.925781 18.628906 65.351562 19.453125 64.269531 19.566406 C 61.011719 20.804688 58.445312 20.058594 54.566406 23.566406 C 54.097656 23.988281 48.023438 26.273438 45.183594 28.78125 C 43.363281 30.390625 39.371094 32.496094 38.019531 34.53125 C 36.976562 36.101562 34.492188 37.011719 32.679688 39.910156 C 32.632812 39.980469 32.183594 40.457031 31.589844 41.097656 C 30.75 42 30.03125 43.210938 29.835938 44.441406 C 29.714844 45.1875 29.34375 46.023438 31.851562 46.140625 C 32.894531 46.1875 34.414062 46.550781 35.523438 46.550781 C 37.378906 46.550781 39.492188 46.964844 41.472656 46.964844 C 43.878906 46.964844 46.582031 47.128906 48.96875 47.128906 C 49.3125 47.128906 49.980469 47.3125 50.425781 47.3125 C 50.203125 47.296875 49.921875 47.488281 49.261719 47.609375 C 48.152344 47.816406 43.90625 48.15625 42.765625 48.15625 C 42.078125 48.15625 38.292969 48.214844 37.8125 48.433594 C 37.058594 48.769531 31.691406 48.394531 30 48.839844 C 29.625 48.9375 27.742188 49.140625 27.328125 49.140625 C 26.804688 49.300781 24.707031 52.808594 24.625 53.855469 C 24.578125 54.480469 22.925781 57.960938 22.660156 59 C 21.976562 60.464844 20.203125 68.984375 20.203125 70.457031 C 20.105469 70.945312 20.148438 71.015625 20.589844 71.015625 C 21.433594 71.015625 21.910156 71.066406 22.714844 71.117188 C 22.714844 71.117188 22.773438 71.117188 22.78125 71.117188 C 23.425781 71.117188 23.628906 71.125 24.242188 71.195312 C 25.183594 71.296875 25.601562 71.402344 26.625 71.402344 C 28.199219 71.402344 29.753906 71.476562 31.328125 71.507812 C 32.203125 71.519531 33.296875 71.792969 33.984375 71.792969 C 36.273438 71.640625 42.703125 71.253906 44.695312 71.652344 C 46 71.910156 54.683594 72.761719 55.425781 72.328125 C 54.121094 73.964844 33.929688 72.546875 31.78125 73.582031 C 30.636719 74.132812 25.476562 74.222656 23.484375 74.554688 C 22.984375 74.636719 20.65625 74.402344 20.285156 74.710938 C 20.28125 76.308594 20.160156 77.828125 20.160156 79.523438 C 20.160156 79.96875 20.488281 80.167969 20.488281 81.449219 C 20.488281 82.558594 20.863281 83.402344 20.816406 84.808594 C 20.808594 85.027344 21.007812 85.964844 21.144531 86.132812 C 21.425781 86.285156 21.183594 87.683594 21.183594 88.078125 C 21.183594 89.761719 23.09375 93.816406 23.066406 94.140625 C 24.285156 94.238281 25.195312 94.957031 26.890625 94.921875 C 27.421875 94.910156 29.101562 95.167969 30.042969 95.167969 C 31.484375 95.167969 36.664062 95.019531 37.609375 95.125 C 36.222656 96.449219 31.210938 96.09375 28.753906 96.625 C 27.554688 96.882812 25.175781 97.136719 23.929688 97.136719 C 26.9375 106.949219 30.503906 106.613281 32.34375 110.9375 C 32.964844 112.410156 37.714844 118.515625 39.003906 119.402344 C 40.121094 120.804688 46.777344 126 48.730469 126.835938 L 109.285156 126.835938 " fill-opacity="1" fill-rule="evenodd"/></g><path fill="#e8f1f2" d="M 91.507812 43.972656 C 91.382812 44.527344 91.21875 45.070312 91.007812 45.59375 C 91.261719 45.5625 91.515625 45.542969 91.769531 45.539062 C 91.820312 45.242188 91.859375 44.945312 91.898438 44.648438 C 91.933594 44.359375 91.953125 44.070312 91.960938 43.789062 C 91.808594 43.851562 91.65625 43.914062 91.507812 43.972656 Z M 84.890625 30.28125 C 86.757812 31.257812 88.464844 32.269531 90.09375 33.367188 C 90.597656 32.851562 91.371094 32.613281 92.082031 32.714844 C 92.78125 32.359375 93.46875 32.289062 94.296875 32.601562 C 94.984375 32.488281 95.523438 32.574219 96.027344 33.003906 C 96.480469 33.058594 96.855469 33.160156 97.203125 33.371094 C 97.484375 32.902344 97.890625 32.527344 98.488281 32.378906 C 99.050781 32.238281 99.636719 32.335938 100.125 32.597656 C 100.359375 32.558594 100.597656 32.558594 100.824219 32.601562 C 101.21875 32.675781 101.605469 32.871094 101.925781 33.140625 C 102.441406 33.234375 102.9375 33.507812 103.296875 33.914062 C 103.6875 34.035156 104.042969 34.25 104.339844 34.558594 C 104.664062 34.894531 104.867188 35.269531 104.996094 35.671875 C 105.566406 35.726562 106.136719 35.777344 106.707031 35.8125 C 106.996094 35.832031 107.285156 35.855469 107.570312 35.902344 C 108.816406 36.113281 109.828125 36.886719 109.828125 38.253906 C 109.828125 38.367188 109.828125 38.480469 109.820312 38.59375 C 109.804688 38.933594 109.765625 39.277344 109.71875 39.613281 C 109.515625 41.101562 108.621094 41.878906 107.09375 41.789062 C 106.300781 41.742188 105.511719 41.683594 104.71875 41.621094 C 104.609375 41.929688 104.460938 42.234375 104.261719 42.523438 C 104.128906 43.074219 104.355469 44.710938 104.433594 45.230469 C 104.703125 47.121094 104.8125 49.246094 104.238281 51.09375 C 103.816406 52.433594 103.050781 53.535156 101.855469 54.28125 C 100.863281 54.902344 99.757812 55.40625 98.644531 55.753906 L 98.488281 55.804688 C 97.324219 56.929688 95.847656 57.585938 94.304688 58.023438 C 93.65625 58.207031 93.007812 58.351562 92.34375 58.460938 C 91.941406 58.527344 91.527344 58.578125 91.125 58.664062 C 90.96875 58.695312 90.8125 58.734375 90.65625 58.789062 C 90.160156 58.960938 89.59375 59.332031 89.15625 59.625 C 89.035156 59.707031 88.910156 59.792969 88.777344 59.878906 C 88.703125 60.417969 88.507812 60.976562 88.222656 61.464844 C 88.308594 62.21875 88.175781 63.085938 87.871094 63.8125 C 88.347656 64.535156 88.625 65.351562 88.84375 66.183594 C 88.90625 66.417969 88.964844 66.671875 89.023438 66.925781 C 90.371094 66.824219 91.824219 67.578125 92.65625 68.644531 C 96.839844 67.230469 100.992188 65.734375 105.089844 64.15625 C 105.824219 63.871094 106.566406 63.660156 107.34375 63.941406 C 108.109375 64.214844 108.5625 64.847656 108.824219 65.585938 L 109.164062 66.550781 C 109.714844 68.117188 109.082031 69.28125 107.554688 69.832031 C 103.035156 71.457031 98.496094 73.035156 93.9375 74.558594 C 95.921875 76.171875 97.96875 77.679688 100.023438 79.203125 C 100.550781 79.597656 101.074219 80.078125 101.566406 80.515625 C 102.292969 81.167969 103.007812 81.835938 103.71875 82.503906 C 104.433594 83.183594 105.144531 83.867188 105.84375 84.566406 C 106.308594 85.035156 106.847656 85.558594 107.25 86.082031 C 107.523438 86.425781 107.808594 86.769531 108.089844 87.113281 C 108.320312 87.390625 108.578125 87.726562 108.835938 87.992188 C 111.25 89.667969 112.820312 94.738281 112.816406 97.488281 C 112.835938 97.636719 112.980469 97.941406 113.042969 98.078125 C 113.238281 98.519531 113.429688 98.949219 113.582031 99.40625 C 114.054688 100.835938 113.996094 102.203125 113.269531 103.546875 C 113.070312 103.917969 112.957031 104.230469 112.804688 104.613281 C 112.535156 105.316406 112.132812 105.878906 111.667969 106.460938 C 111.417969 106.992188 111.316406 107.386719 110.75 107.78125 C 110.742188 107.78125 110.738281 107.789062 110.734375 107.789062 C 110.738281 108.070312 110.679688 108.367188 110.558594 108.660156 C 110.332031 109.207031 109.933594 109.8125 109.566406 110.28125 C 109.34375 110.5625 109.21875 110.8125 109.128906 111.167969 C 108.882812 112.113281 108.746094 113.089844 107.980469 113.785156 C 107.652344 114.082031 107.28125 114.261719 106.882812 114.355469 C 106.261719 115.578125 105.757812 116.589844 105.757812 118.144531 C 105.757812 118.460938 105.773438 118.726562 105.996094 118.957031 C 106.410156 119.390625 106.898438 119.691406 107.332031 120.179688 C 107.789062 120.703125 108.949219 121.625 109.554688 121.96875 C 110.707031 122.628906 111.097656 122.6875 112.367188 122.992188 C 113.152344 123.179688 113.898438 123.382812 114.484375 123.976562 C 115.339844 124.835938 115.367188 126.007812 115.152344 127.121094 C 115.429688 128.347656 114.679688 128.894531 113.601562 129.320312 C 112.460938 129.769531 110.363281 129.683594 109.085938 129.738281 C 108.066406 129.777344 107.070312 129.785156 106.050781 129.636719 C 104.550781 129.414062 103.402344 128.742188 102.226562 127.835938 C 102.152344 127.777344 102.046875 127.695312 101.929688 127.597656 C 101.617188 128.0625 101.085938 128.34375 100.441406 128.316406 L 97.734375 128.316406 L 97.65625 128.308594 C 95.632812 128.089844 95.144531 126.183594 95.398438 124.5 C 95.4375 124.238281 95.515625 124 95.632812 123.789062 C 95.539062 122.378906 95.75 121.226562 96.363281 119.8125 C 96.902344 118.574219 97.507812 117.238281 97.726562 115.898438 C 97.863281 115.058594 97.957031 113.828125 97.941406 112.902344 C 96.410156 113.289062 94.878906 113.363281 93.34375 113.714844 C 92.867188 113.824219 92.515625 113.972656 92.082031 114.183594 C 90.816406 114.800781 89.828125 115.019531 88.414062 115.152344 C 86.34375 115.347656 83.117188 115.738281 81.648438 113.964844 C 81.210938 113.4375 80.792969 112.878906 80.425781 112.296875 C 80.105469 111.785156 79.714844 110.855469 79.324219 109.730469 C 78.484375 112.164062 77.339844 115.691406 74.921875 117.019531 C 72.992188 118.078125 69.667969 116.828125 67.84375 115.964844 C 66.289062 115.230469 64.289062 114.050781 63.210938 112.6875 C 63.136719 112.59375 63.050781 112.503906 62.964844 112.421875 C 62.242188 111.757812 60.804688 111.257812 59.902344 110.859375 C 58.554688 110.265625 57.386719 109.601562 56.3125 108.710938 L 55.21875 110.011719 C 54.78125 111.238281 53.519531 112.046875 52.535156 112.808594 C 52.117188 113.132812 51.644531 113.621094 51.261719 113.992188 C 50.914062 114.332031 50.4375 114.765625 50.125 115.144531 C 49.570312 116.253906 49.203125 117.425781 48.507812 118.480469 C 48.117188 119.074219 48.0625 119.804688 47.925781 120.488281 C 47.785156 121.167969 47.410156 121.832031 47.015625 122.417969 C 47.019531 122.6875 47.054688 123.011719 47.066406 123.246094 C 47.101562 123.898438 47.101562 124.554688 47 125.203125 C 46.601562 127.773438 44.78125 129.03125 42.214844 129.03125 C 40.15625 129.03125 37.488281 127.65625 37.488281 125.320312 C 37.488281 123.40625 38.882812 120.644531 39.597656 118.832031 C 40.097656 117.554688 40.773438 116.246094 41.410156 115.027344 C 42.03125 113.839844 42.691406 112.617188 43.40625 111.476562 C 43.609375 111.152344 43.804688 110.816406 43.980469 110.476562 C 44.179688 110.089844 44.578125 109.273438 44.828125 108.640625 C 44.789062 108.578125 44.75 108.515625 44.710938 108.445312 C 43.730469 106.628906 45.640625 104.527344 46.570312 103.109375 C 46.785156 102.777344 46.964844 102.445312 47.121094 102.101562 C 46.125 101.609375 45.121094 101.117188 44.203125 100.515625 C 43.246094 99.890625 42.410156 98.957031 42.75 97.722656 C 43.023438 96.726562 43.898438 96.277344 44.804688 96.007812 C 45.042969 95.941406 45.347656 95.878906 45.570312 95.789062 C 46.730469 95.320312 47.84375 94.722656 48.957031 94.160156 C 49.609375 93.832031 50.25 93.324219 50.839844 92.894531 C 51.707031 92.261719 52.570312 91.675781 53.546875 91.214844 C 54.050781 90.976562 54.644531 90.363281 55.027344 89.964844 C 55.769531 89.191406 56.476562 88.398438 57.257812 87.664062 C 58.460938 86.539062 60.050781 85.730469 61.085938 84.460938 C 61.164062 84.367188 61.246094 84.273438 61.324219 84.175781 C 58.371094 84.894531 55.40625 85.558594 52.433594 86.152344 C 49.59375 86.71875 46.738281 87.230469 43.867188 87.628906 C 41.515625 87.957031 39.117188 88.21875 36.742188 88.296875 C 36.0625 88.320312 35.390625 88.027344 34.871094 87.605469 C 34.207031 87.066406 33.726562 86.25 33.804688 85.375 C 33.917969 84.015625 35.125 83.378906 36.324219 83.179688 C 47.269531 81.347656 58.25 78.742188 68.976562 75.8125 L 69.125 75.617188 C 69.425781 74.554688 69.472656 73.414062 69.496094 72.320312 C 69.523438 71.140625 69.496094 69.773438 69.886719 68.648438 C 70.082031 68.089844 70.402344 67.636719 70.824219 67.3125 C 70.722656 66.90625 70.605469 66.503906 70.488281 66.101562 C 69.640625 63.292969 68.90625 61.105469 69.40625 58.148438 C 68.824219 54.808594 69.570312 51.617188 72.144531 49.28125 C 73.207031 48.3125 74.5 47.699219 75.769531 47.058594 C 76.285156 46.800781 77.464844 46.132812 78.148438 45.609375 C 78.082031 45.265625 78.035156 44.914062 78 44.5625 C 75.949219 44.03125 73.902344 43.25 71.886719 42.253906 L 70.125 41.378906 L 71.464844 39.941406 C 72.332031 39.011719 73.265625 38.101562 74.246094 37.21875 C 66.328125 35.769531 58.441406 34.132812 50.621094 32.257812 C 46.5625 31.285156 42.527344 30.214844 38.53125 29.027344 C 34.957031 27.964844 31.386719 26.8125 27.902344 25.484375 C 25.257812 24.476562 22.480469 23.324219 20.03125 21.898438 C 18.550781 21.035156 16.460938 19.660156 15.933594 17.925781 L 15.050781 15 L 17.875 16.144531 C 23.132812 18.273438 28.558594 20.097656 33.976562 21.761719 C 40.164062 23.660156 46.425781 25.363281 52.710938 26.90625 C 61.726562 29.121094 70.953125 31.09375 80.160156 32.523438 C 81.253906 31.753906 82.355469 31.019531 83.445312 30.339844 L 84.15625 29.894531 L 84.890625 30.28125 " fill-opacity="1" fill-rule="evenodd"/><path fill="#13293d" d="M 17.328125 17.5 C 34.851562 24.597656 63.753906 31.769531 83.945312 34.554688 L 84.265625 32.683594 L 85.503906 32.898438 L 85.207031 34.625 C 88.390625 35.070312 102.308594 36.988281 106.613281 37.273438 C 107.265625 37.316406 108.371094 37.363281 108.371094 38.257812 C 108.371094 38.34375 108.371094 38.433594 108.363281 38.523438 C 108.347656 38.847656 108.308594 39.183594 108.277344 39.410156 C 108.1875 40.066406 108.007812 40.378906 107.179688 40.328125 C 100.425781 39.929688 91.339844 38.542969 84.695312 37.605469 L 84.332031 39.722656 L 83.09375 39.507812 L 83.464844 37.34375 C 72.644531 35.542969 61.621094 33.394531 50.960938 30.835938 C 34.546875 26.898438 18.480469 21.300781 17.328125 17.5 " fill-opacity="1" fill-rule="evenodd"/><path fill="#13293d" d="M 107.453125 66.074219 L 107.789062 67.039062 C 108.0625 67.808594 107.859375 68.167969 107.0625 68.453125 C 95.398438 72.652344 83.367188 76.609375 71.464844 79.988281 C 58.253906 83.738281 44.753906 86.570312 36.695312 86.835938 C 35.71875 86.867188 34.074219 85.035156 36.5625 84.621094 C 57.566406 81.113281 85.785156 73.171875 105.613281 65.519531 C 106.519531 65.171875 107.09375 65.058594 107.453125 66.074219 " fill-opacity="1" fill-rule="evenodd"/><path fill="#13293d" d="M 87.675781 36.933594 C 91.226562 38.789062 90.984375 44.796875 87.875 47.761719 C 88.449219 47.761719 91.019531 46.785156 92.398438 47.042969 C 92.417969 47.898438 92.277344 48.765625 92.089844 49.523438 C 92.804688 47.996094 93.148438 46.390625 93.34375 44.828125 C 93.496094 43.613281 93.300781 42.566406 93.546875 41.273438 C 92.589844 41.039062 90.476562 40.578125 90.359375 38.644531 C 90.417969 38.550781 90.574219 37.765625 90.574219 37.667969 C 90.5625 37.386719 90.632812 35.402344 91.027344 34.539062 C 91.191406 34.179688 91.929688 33.976562 92.222656 34.34375 C 92.824219 33.902344 93.195312 33.695312 93.949219 34.039062 C 94.464844 34.273438 94.742188 33.65625 95.277344 34.324219 C 95.503906 34.601562 96.140625 34.152344 96.824219 34.976562 C 96.972656 35.15625 97.136719 36.082031 97.136719 36.328125 C 97.316406 36.601562 97.414062 37.460938 97.414062 38.308594 C 97.519531 37.285156 97.910156 36.335938 98.085938 35.296875 C 98.195312 34.640625 98.398438 33.90625 98.835938 33.796875 C 99.398438 33.660156 99.820312 34.117188 99.753906 34.417969 C 99.8125 34.3125 100.171875 33.964844 100.554688 34.039062 C 100.984375 34.117188 101.277344 34.542969 101.21875 34.699219 C 101.421875 34.441406 102.296875 34.589844 102.371094 35.238281 C 104.203125 35.21875 103.667969 37.707031 103.617188 38.976562 C 103.582031 39.878906 103.582031 41.019531 102.984375 41.800781 C 102.625 42.421875 102.777344 43.984375 102.988281 45.441406 C 103.316406 47.695312 103.246094 49.382812 102.847656 50.65625 C 102.503906 51.75 101.914062 52.523438 101.085938 53.039062 C 100.257812 53.558594 99.246094 54.035156 98.207031 54.359375 C 98.386719 53.113281 98.273438 51.976562 98.273438 51.976562 C 98.222656 53.066406 97.96875 54.269531 97.511719 54.714844 C 96.539062 55.671875 95.257812 56.234375 93.910156 56.617188 C 92.039062 57.148438 91.222656 57.050781 90.1875 57.40625 C 88.742188 57.898438 86.910156 59.597656 85.917969 59.878906 C 86.199219 59.925781 86.945312 59.804688 87.347656 59.578125 C 87.324219 59.839844 87.164062 60.636719 86.636719 61.160156 C 86.957031 61.640625 86.734375 63.476562 86.070312 63.945312 C 87.472656 65.148438 87.46875 67.464844 88.117188 68.972656 C 88.8125 67.789062 90.988281 68.539062 91.699219 69.835938 C 92.6875 71.636719 92.101562 72.472656 92.574219 75.332031 C 94.714844 77.097656 96.539062 78.433594 99.15625 80.378906 C 100.300781 81.230469 105.257812 85.890625 106.105469 86.980469 C 106.402344 87.363281 107.660156 88.90625 107.90625 89.128906 C 109.851562 90.339844 111.363281 95.0625 111.363281 97.519531 C 111.363281 98.675781 113.261719 100.488281 111.988281 102.855469 C 111.269531 104.191406 111.679688 104.113281 110.46875 105.625 C 110.308594 105.824219 110.207031 106.378906 109.917969 106.582031 C 109 107.21875 107.457031 107.453125 107.457031 107.453125 C 108.324219 107.394531 108.644531 107.398438 108.828125 107.410156 C 109.246094 107.441406 109.371094 107.714844 109.214844 108.101562 C 109.011719 108.582031 108.582031 109.171875 108.425781 109.375 C 108.171875 109.691406 107.894531 110.105469 107.714844 110.804688 C 107.375 112.125 107.328125 113.085938 105.949219 112.960938 C 105.230469 114.4375 104.300781 115.839844 104.300781 118.144531 C 104.300781 119.996094 105.355469 120.144531 106.238281 121.144531 C 106.789062 121.773438 108.167969 122.863281 108.835938 123.242188 C 110.238281 124.039062 110.535156 124.054688 112.03125 124.414062 C 113.300781 124.71875 114.167969 124.964844 113.664062 127.105469 C 113.691406 127.621094 114.070312 127.566406 113.066406 127.960938 C 112.277344 128.269531 110.066406 128.234375 109.027344 128.277344 C 108.113281 128.316406 107.214844 128.332031 106.265625 128.1875 C 103.601562 127.792969 102.359375 125.527344 100.789062 125.257812 C 100.789062 125.269531 100.789062 126.054688 100.789062 126.527344 C 100.789062 126.738281 100.726562 126.875 100.480469 126.855469 L 97.8125 126.855469 C 96.671875 126.734375 96.738281 125.394531 96.839844 124.714844 C 96.894531 124.34375 97.042969 124.445312 97.160156 124.410156 C 96.953125 122.859375 97.074219 121.835938 97.699219 120.394531 C 98.285156 119.042969 98.921875 117.621094 99.167969 116.136719 C 99.292969 115.363281 99.433594 113.535156 99.386719 112.554688 C 99.335938 111.554688 98.503906 111.25 97.636719 111.472656 C 95.929688 111.914062 94.992188 111.839844 93.019531 112.289062 C 91.160156 112.714844 91.265625 113.414062 88.277344 113.695312 C 86.222656 113.890625 83.683594 114.136719 82.769531 113.03125 C 82.4375 112.628906 82.019531 112.085938 81.660156 111.515625 C 80.433594 109.574219 78.601562 102.058594 78.691406 100.484375 C 78.449219 101.589844 78.699219 104.316406 79.117188 106.433594 C 77.570312 109.386719 77.636719 111.230469 76.144531 113.609375 C 75.433594 114.746094 74.828125 115.402344 74.222656 115.738281 C 72.300781 116.792969 66.105469 113.988281 64.351562 111.777344 C 62.730469 109.730469 59.292969 109.929688 56.191406 106.589844 L 53.902344 109.3125 C 53.753906 110.183594 52.527344 110.972656 51.648438 111.652344 C 51.199219 111.992188 49.011719 114.117188 48.878906 114.367188 C 48.429688 115.25 47.890625 116.765625 47.292969 117.675781 C 46.734375 118.523438 46.6875 119.253906 46.496094 120.195312 C 46.421875 120.558594 46.191406 121.0625 45.632812 121.851562 C 45.203125 122.457031 47.027344 127.574219 42.214844 127.574219 C 40.863281 127.574219 38.945312 126.683594 38.945312 125.320312 C 38.945312 123.855469 40.097656 121.550781 40.953125 119.363281 C 41.628906 117.640625 43.613281 113.886719 44.636719 112.257812 C 44.859375 111.90625 45.078125 111.519531 45.273438 111.148438 C 45.53125 110.648438 46.695312 108.179688 46.445312 108.097656 C 44.835938 107.570312 47.296875 104.664062 47.785156 103.914062 C 48.253906 103.203125 48.566406 102.523438 48.960938 101.394531 C 47.515625 100.640625 46.109375 100.019531 45 99.292969 C 44.199219 98.769531 44.074219 98.402344 44.15625 98.109375 C 44.320312 97.507812 45.546875 97.375 46.121094 97.144531 C 47.273438 96.671875 48.421875 96.066406 49.613281 95.464844 C 50.972656 94.777344 52.285156 93.429688 54.167969 92.539062 C 55.425781 91.941406 56.632812 90.246094 58.253906 88.734375 C 59.453125 87.609375 61.039062 86.828125 62.214844 85.390625 C 64.378906 82.746094 68.59375 78.851562 70.445312 76.28125 C 71.285156 73.675781 70.683594 70.796875 71.261719 69.128906 C 71.488281 68.488281 71.953125 68.238281 72.492188 68.195312 C 71.96875 64.886719 70.125 62.117188 70.886719 58.144531 C 70.273438 55.019531 70.980469 52.308594 73.121094 50.363281 C 74.042969 49.527344 75.25 48.957031 76.425781 48.367188 C 77.703125 47.726562 79.382812 46.625 79.757812 46.070312 C 79.585938 45.523438 79.160156 44.148438 79.15625 42.820312 C 78.875 42.269531 78.894531 40.96875 79.136719 40.382812 C 79.257812 40.085938 79.527344 40.003906 79.761719 40.066406 C 80.089844 38.972656 80.660156 37.992188 81.605469 37.394531 C 82.359375 36.914062 83.332031 36.640625 84.566406 36.640625 C 84.527344 35.136719 84.601562 33.796875 86.175781 35.039062 C 86.671875 35.429688 87.796875 34.085938 88.058594 35.433594 C 88.160156 35.957031 88.023438 36.515625 87.675781 36.933594 Z M 98.125 46.121094 C 97.859375 44.542969 97.46875 42.792969 97.269531 41.535156 C 97.140625 40.730469 97.195312 40.0625 97.203125 40.042969 C 97.296875 39.8125 97.359375 39.429688 97.390625 38.988281 C 97.402344 39.269531 97.441406 39.554688 97.515625 39.851562 C 97.78125 40.898438 98.988281 40.789062 99.457031 41.949219 C 99.441406 43.988281 99.253906 45.191406 98.125 46.121094 " fill-opacity="1" fill-rule="evenodd"/><path fill="#13293d" d="M 72.53125 40.941406 C 80.601562 44.9375 88.78125 44.953125 95.8125 39.871094 C 91.953125 36.203125 88.582031 33.863281 84.21875 31.578125 C 80.144531 34.128906 75.742188 37.496094 72.53125 40.941406 " fill-opacity="1" fill-rule="evenodd"/><g clip-path="url(#9847af1408)"><path fill="#13293d" d="M 18.09375 131.503906 C 23.800781 130.167969 36 126.242188 42.40625 125.402344 C 44.109375 125.175781 48.855469 124.699219 52.898438 124.226562 C 57.601562 123.671875 61.886719 123.398438 66.640625 123.363281 C 72.949219 123.3125 80.179688 123.839844 86.484375 123.949219 C 95.410156 124.105469 105.152344 124.902344 113.0625 125.996094 C 118.480469 126.746094 125.671875 128.375 130.421875 129.996094 C 130.457031 130.082031 124.804688 129.171875 119.511719 129.058594 C 116.753906 128.996094 107.265625 127.953125 109.351562 130.351562 C 110.445312 131.601562 112.003906 133.21875 109.476562 132.9375 C 101.328125 132.027344 102.148438 130.648438 95.667969 129.117188 C 91.449219 128.125 85.617188 127.164062 90.617188 130.546875 C 92.480469 131.808594 88.617188 134.605469 81.90625 131.121094 C 80 130.132812 70.21875 127.464844 73.726562 130.632812 C 75.207031 131.96875 71.6875 134.726562 68.574219 131.148438 C 66.808594 129.117188 63.398438 129.421875 60.839844 129.3125 C 58.800781 129.230469 56.839844 129.582031 54.9375 130.015625 C 51.910156 130.707031 50.292969 133.09375 46.859375 134.109375 C 44.128906 134.917969 41.691406 135.542969 40.738281 134.3125 C 40.1875 133.601562 38.589844 131.609375 41.695312 130.382812 C 43.449219 129.6875 40.984375 129.355469 40.136719 129.40625 C 37.726562 129.554688 34.175781 129.898438 31.082031 130.222656 C 26.757812 130.675781 22.351562 131.410156 18.09375 131.503906 " fill-opacity="1" fill-rule="evenodd"/></g><g fill="#13293d" fill-opacity="1"><g transform="translate(147.355351, 91.499997)"><g><path d="M 6.3125 -45.578125 L 19.125 -24.984375 L 32.3125 -45.578125 L 38.8125 -45.578125 L 21.828125 -19.640625 L 21.828125 0 L 16.421875 0 L 16.421875 -19.640625 L -0.578125 -45.578125 Z M 6.3125 -45.578125 "/></g></g></g><g fill="#13293d" fill-opacity="1"><g transform="translate(185.591754, 91.499997)"><g><path d="M 25.5625 -45.578125 L 44.9375 0 L 38.625 0 L 33.984375 -11.203125 L 11.203125 -11.203125 L 6.5 0 L 0.390625 0 L 20.46875 -45.578125 Z M 22.78125 -38.625 L 13.328125 -16.21875 L 31.9375 -16.21875 L 22.921875 -38.625 Z M 22.78125 -38.625 "/></g></g></g><g fill="#13293d" fill-opacity="1"><g transform="translate(230.90897, 91.499997)"><g><path d="M 13.71875 -45.578125 L 29.15625 -9.84375 L 29.296875 -9.84375 L 44.875 -45.578125 L 52.71875 -45.578125 L 52.71875 0 L 47.3125 0 L 47.3125 -38.234375 L 47.1875 -38.234375 L 30.828125 0 L 27.546875 0 L 11.203125 -38.234375 L 11.078125 -38.234375 L 11.078125 0 L 5.671875 0 L 5.671875 -45.578125 Z M 13.71875 -45.578125 "/></g></g></g><g fill="#13293d" fill-opacity="1"><g transform="translate(289.293507, 91.499997)"><g><path d="M 25.5625 -45.578125 L 44.9375 0 L 38.625 0 L 33.984375 -11.203125 L 11.203125 -11.203125 L 6.5 0 L 0.390625 0 L 20.46875 -45.578125 Z M 22.78125 -38.625 L 13.328125 -16.21875 L 31.9375 -16.21875 L 22.921875 -38.625 Z M 22.78125 -38.625 "/></g></g></g><g fill="#13293d" fill-opacity="1"><g transform="translate(334.610722, 91.499997)"><g><path d="M 36.25 -45.578125 L 36.25 -40.5625 L 21.171875 -40.5625 L 21.171875 0 L 15.765625 0 L 15.765625 -40.5625 L 0.703125 -40.5625 L 0.703125 -45.578125 Z M 36.25 -45.578125 "/></g></g></g><g fill="#13293d" fill-opacity="1"><g transform="translate(371.559699, 91.499997)"><g><path d="M 26.84375 -46.734375 C 33.707031 -46.734375 39.367188 -44.476562 43.828125 -39.96875 C 48.296875 -35.46875 50.570312 -29.738281 50.65625 -22.78125 C 50.613281 -15.707031 48.316406 -9.957031 43.765625 -5.53125 C 39.222656 -1.113281 33.582031 1.113281 26.84375 1.15625 C 19.976562 1.15625 14.3125 -1.101562 9.84375 -5.625 C 5.382812 -10.15625 3.113281 -15.875 3.03125 -22.78125 C 3.03125 -29.65625 5.257812 -35.34375 9.71875 -39.84375 C 14.1875 -44.351562 19.894531 -46.648438 26.84375 -46.734375 Z M 8.8125 -22.78125 C 8.8125 -17.332031 10.53125 -12.835938 13.96875 -9.296875 C 17.40625 -5.753906 21.695312 -3.941406 26.84375 -3.859375 C 31.988281 -3.859375 36.253906 -5.660156 39.640625 -9.265625 C 43.035156 -12.867188 44.78125 -17.375 44.875 -22.78125 C 44.875 -28.0625 43.195312 -32.515625 39.84375 -36.140625 C 36.5 -39.773438 32.144531 -41.632812 26.78125 -41.71875 C 21.539062 -41.675781 17.257812 -39.835938 13.9375 -36.203125 C 10.613281 -32.578125 8.90625 -28.101562 8.8125 -22.78125 Z M 8.8125 -22.78125 "/></g></g></g></svg>